<svg width="140" height="48" viewBox="0 0 140 48" fill="none" xmlns="http://www.w3.org/2000/svg">
<path d="M1.39276 47.6018C0.960679 47.3881 0.953229 47.3323 0.733465 46.9031C0.580748 46.6021 0.694355 46.5779 0.69808 46.2416C0.701804 45.9053 0.703667 45.9034 0.705529 45.5671C0.707392 45.2307 0.68318 45.2289 0.685043 44.8926C0.686905 44.5562 0.74464 44.5544 0.742777 44.218C0.740915 43.8817 0.720428 43.8798 0.714841 43.5435C0.709254 43.2072 0.731603 43.2053 0.72974 42.869C0.727878 42.5327 0.688768 42.5308 0.69063 42.1945C0.692492 41.8581 0.681318 41.8563 0.681318 41.5199C0.681318 41.1836 0.755814 41.1818 0.755814 40.8454C0.755814 40.5091 0.748365 40.5072 0.750227 40.1709C0.752089 39.8346 0.750227 39.8327 0.755814 39.4964C0.761401 39.1601 0.703667 39.1582 0.703667 38.82C0.703667 38.4818 0.712979 38.4818 0.711116 38.1455C0.709254 37.8091 0.679456 37.8073 0.675731 37.471C0.672006 37.1346 0.74464 37.1328 0.742777 36.7946C0.740915 36.4564 0.5435 36.4137 0.696217 36.1126C0.914119 35.676 0.94578 35.6146 1.37972 35.3898C1.67026 35.2393 1.72613 35.3972 2.05391 35.3935C2.38169 35.3898 2.38169 35.3898 2.70762 35.3898C3.03354 35.3898 3.0354 35.3935 3.36318 35.3991C3.69097 35.4047 3.69097 35.4028 4.01875 35.4065C4.34653 35.4102 4.34653 35.4065 4.67432 35.4084C5.0021 35.4102 5.0021 35.479 5.32988 35.479C5.65767 35.479 5.65767 35.4474 5.98545 35.4455C6.31323 35.4437 6.31323 35.4214 6.64102 35.4381C6.99487 35.4567 6.98742 35.5199 7.33942 35.5589C7.69141 35.5979 7.72121 35.4474 8.06017 35.5552C8.39913 35.6629 8.34139 35.7856 8.64869 35.9584C8.95599 36.1312 9.0398 36.016 9.29308 36.2594C9.54637 36.5028 9.47374 36.566 9.65439 36.8633C9.83504 37.1606 9.84808 37.1532 9.96541 37.4821C10.0827 37.811 10.025 37.8222 10.0772 38.1715C10.1293 38.5208 10.2094 38.5097 10.2466 38.8609C10.269 39.0653 10.2112 39.069 10.1982 39.2753C10.1815 39.5335 10.187 39.5335 10.1517 39.79C10.1163 40.0464 10.2001 40.0706 10.1181 40.3158C10.0362 40.5611 9.93934 40.5202 9.81642 40.7451C9.6935 40.9699 9.57431 40.9458 9.60224 41.2003C9.63763 41.5255 9.75123 41.4828 9.93003 41.7559C10.1088 42.0291 10.1684 41.9956 10.2857 42.3004C10.4031 42.6051 10.3472 42.6237 10.4012 42.9489C10.4552 43.2741 10.5279 43.2685 10.5521 43.5974C10.5726 43.8854 10.539 43.8928 10.513 44.1809C10.4813 44.5302 10.4589 44.5302 10.4105 44.8777C10.3621 45.2252 10.4254 45.2456 10.3044 45.5745C10.1833 45.9034 10.0958 45.8588 9.9114 46.1524C9.72702 46.446 9.79407 46.4999 9.54078 46.7377C9.2875 46.9756 9.25956 46.9421 8.95412 47.1094C8.64869 47.2766 8.66359 47.3212 8.33208 47.4308C8.00057 47.5405 7.9745 47.4364 7.62623 47.4847C7.27796 47.533 7.28355 47.5721 6.93155 47.5981C6.57956 47.6241 6.58701 47.6612 6.24246 47.6631C5.89792 47.665 5.89605 47.6538 5.55151 47.652C5.20696 47.6501 5.20696 47.6036 4.86056 47.5981C4.51415 47.5925 4.51415 47.6482 4.1696 47.6464C3.82506 47.6445 3.8232 47.5795 3.47865 47.5832C3.13411 47.5869 3.13224 47.6464 2.7877 47.6464C2.44315 47.6464 2.4357 47.5275 2.09302 47.5739C1.75034 47.6204 1.70937 47.7579 1.39834 47.6055L1.39276 47.6018ZM6.37469 44.6008C6.6317 44.5098 6.60377 44.4577 6.80863 44.2793C7.0135 44.101 7.0433 44.1233 7.1867 43.8928C7.27051 43.7572 7.28168 43.7238 7.19788 43.5862C7.0582 43.354 6.97625 43.4339 6.76952 43.2592C6.5628 43.0845 6.64102 42.9526 6.384 42.8653C6.10278 42.7705 6.08043 42.8876 5.78431 42.8931C5.48819 42.8987 5.48633 42.8764 5.18834 42.8783C4.89036 42.8801 4.89036 42.9192 4.59237 42.9173C4.29439 42.9154 4.23479 42.7129 4.01875 42.9173C3.80271 43.1217 3.95356 43.1774 3.95356 43.4617C3.95356 43.7461 3.95729 43.7461 3.95915 44.0285C3.96101 44.3109 3.77105 44.4243 3.97591 44.6213C4.18078 44.8182 4.29811 44.5748 4.59609 44.5804C4.89408 44.586 4.89222 44.5971 5.1902 44.599C5.48819 44.6008 5.49377 44.5395 5.7899 44.5674C6.08602 44.5952 6.09533 44.6974 6.37655 44.5971L6.37469 44.6008ZM6.09719 39.9386C6.55348 39.7361 6.57397 39.7324 6.92969 39.3793C7.00605 39.305 6.96694 39.2418 6.90548 39.1545C6.7509 38.9334 6.7062 38.9761 6.5032 38.7977C6.3002 38.6193 6.34489 38.5599 6.09161 38.4669C5.83832 38.374 5.84018 38.4205 5.57758 38.4261C5.31498 38.4316 5.31498 38.4521 5.05238 38.4539C4.78979 38.4558 4.78979 38.4279 4.52532 38.4261C4.26086 38.4242 4.16588 38.244 4.01316 38.4577C3.79712 38.7605 4.02992 38.8181 4.02992 39.1916C4.02992 39.5651 3.75056 39.6562 3.96288 39.9609C4.11373 40.1765 4.26086 39.9795 4.52346 39.9851C4.78606 39.9907 4.78606 39.9869 5.04866 39.9888C5.31126 39.9907 5.31685 39.8996 5.57758 39.9293C5.83832 39.9591 5.85508 40.0464 6.09533 39.9386H6.09719Z" fill="#292C2D"/>
<path d="M16.8116 47.7002C16.4615 47.6761 16.4596 47.704 16.1095 47.6612C15.7594 47.6185 15.7538 47.6575 15.4167 47.5535C15.0796 47.4494 15.1187 47.3714 14.8077 47.2115C14.4966 47.0517 14.4147 47.1744 14.1577 46.9347C13.9007 46.695 13.9863 46.6262 13.8076 46.3271C13.6288 46.0279 13.558 46.0613 13.4388 45.7324C13.3196 45.4035 13.4314 45.3775 13.3792 45.03C13.3271 44.6826 13.2898 44.69 13.26 44.3406C13.2302 43.9913 13.2284 44.0006 13.2228 43.6568C13.2172 43.3131 13.2116 43.3149 13.2079 42.9712C13.2041 42.6274 13.1781 42.6274 13.1781 42.2855C13.1781 41.9436 13.219 41.9436 13.2228 41.5998C13.2265 41.2561 13.2656 41.2579 13.273 40.9142C13.2805 40.5704 13.2581 40.5704 13.26 40.2285C13.2619 39.8866 13.206 39.8866 13.2041 39.5428C13.2023 39.1991 13.2675 39.1991 13.2637 38.8571C13.26 38.5152 13.2675 38.5134 13.2637 38.1715C13.26 37.8296 13.2097 37.8296 13.2079 37.4858C13.206 37.142 13.1762 37.142 13.1762 36.8001C13.1762 36.4582 13.0384 36.4043 13.1948 36.0996C13.4165 35.6666 13.4798 35.6425 13.9137 35.4232C14.1968 35.2801 14.2378 35.4548 14.5562 35.4567C14.8747 35.4585 14.8747 35.3991 15.1932 35.3991C15.5117 35.3991 15.5489 35.2969 15.832 35.4418C16.2548 35.6592 16.2901 35.6908 16.5062 36.1145C16.657 36.4081 16.4727 36.4452 16.4745 36.776C16.4764 37.1067 16.482 37.1067 16.4838 37.4375C16.4857 37.7682 16.5304 37.7682 16.5267 38.099C16.5229 38.4298 16.5397 38.4298 16.5416 38.7605C16.5434 39.0913 16.4931 39.0913 16.4987 39.422C16.5043 39.7528 16.5378 39.7528 16.5397 40.0835C16.5416 40.4143 16.5416 40.4143 16.5397 40.7451C16.5378 41.0758 16.4931 41.0758 16.4894 41.4066C16.4857 41.7373 16.5304 41.7373 16.5285 42.0681C16.5267 42.3988 16.5211 42.3988 16.5192 42.7296C16.5174 43.0604 16.5453 43.0604 16.5472 43.3911C16.549 43.7219 16.3721 43.7535 16.4969 44.0601C16.6012 44.3128 16.7204 44.231 16.9271 44.4094C17.1338 44.5878 17.0705 44.7141 17.335 44.7885C17.7242 44.8981 17.7465 44.7402 18.1507 44.7346C18.5548 44.729 18.5641 44.8256 18.9515 44.7104C19.2048 44.6361 19.1899 44.6027 19.3892 44.4317C19.5885 44.2607 19.6983 44.3128 19.7971 44.0694C19.9218 43.7628 19.8008 43.7237 19.8045 43.393C19.8082 43.0622 19.7505 43.0622 19.7524 42.7315C19.7542 42.4007 19.7635 42.4007 19.7635 42.0699C19.7635 41.7392 19.7319 41.7392 19.7337 41.4084C19.7356 41.0777 19.8064 41.0777 19.8082 40.7469C19.8101 40.4162 19.771 40.4162 19.7673 40.0854C19.7635 39.7546 19.7319 39.7547 19.7244 39.4239C19.717 39.0931 19.7281 39.0931 19.7244 38.7624C19.7207 38.4316 19.7281 38.4316 19.73 38.1009C19.7319 37.7701 19.73 37.7701 19.7319 37.4393C19.7337 37.1086 19.7319 37.1086 19.7319 36.7778C19.7319 36.4471 19.581 36.3951 19.7319 36.1015C19.9572 35.6648 20.0336 35.6759 20.4712 35.4492C20.7525 35.3024 20.7748 35.4269 21.0914 35.4307C21.408 35.4344 21.4099 35.4307 21.7284 35.4344C22.0468 35.4381 22.0617 35.3322 22.343 35.479C22.7676 35.7001 22.8589 35.6722 23.073 36.0996C23.2257 36.4062 23.0153 36.4582 23.019 36.8001C23.0227 37.142 23.0749 37.142 23.0786 37.4858C23.0823 37.8296 23.0786 37.8277 23.0823 38.1715C23.0861 38.5152 23.0376 38.5134 23.0358 38.8571C23.0339 39.2009 23.0358 39.1991 23.0283 39.5428C23.0209 39.8866 23.0805 39.8866 23.0768 40.2303C23.073 40.5741 23.0172 40.5723 23.0209 40.916C23.0246 41.2598 23.0488 41.2579 23.0507 41.6017C23.0525 41.9455 23.0898 41.9455 23.0898 42.2874C23.0898 42.6293 23.0283 42.6311 23.0302 42.973C23.0321 43.3149 23.0693 43.3149 23.0749 43.6587C23.0805 44.0025 23.0786 44.0025 23.0544 44.3444C23.0302 44.6863 23.0004 44.6918 22.9464 45.0393C22.8924 45.3868 22.9631 45.4035 22.844 45.7343C22.7248 46.065 22.7043 46.0576 22.5273 46.3568C22.3504 46.6559 22.4044 46.7117 22.1493 46.9514C21.8941 47.1911 21.8308 47.1112 21.5198 47.2692C21.2088 47.4271 21.2255 47.4773 20.8922 47.5832C20.5588 47.6891 20.5383 47.6092 20.1882 47.6594C19.838 47.7095 19.8436 47.7356 19.4916 47.7579C19.1396 47.7802 19.1564 47.7987 18.8212 47.7932C18.4859 47.7876 18.4859 47.7709 18.1488 47.7671C17.8117 47.7634 17.8136 47.7263 17.4784 47.717C17.1431 47.7077 17.1431 47.7263 16.8079 47.704L16.8116 47.7002Z" fill="#292C2D"/>
<path d="M29.7796 47.5851C29.3363 47.3528 29.3046 47.3491 29.083 46.9013C28.9266 46.5854 29.0309 46.5631 29.0327 46.21C29.0346 45.857 29.1035 45.857 29.1035 45.5039C29.1035 45.1509 29.0756 45.1509 29.0737 44.7978C29.0718 44.4448 29.0104 44.4448 29.0122 44.0917C29.0141 43.7386 29.0253 43.7386 29.0309 43.3856C29.0365 43.0325 29.1147 43.0344 29.1184 42.6813C29.1221 42.3283 29.0998 42.3283 29.0998 41.9752C29.0998 41.6222 29.0607 41.6222 29.0588 41.2691C29.0569 40.9161 29.0607 40.9161 29.0588 40.563C29.0569 40.21 29.0979 40.21 29.0979 39.8569C29.0979 39.5038 29.1203 39.502 29.124 39.1452C29.1277 38.7884 29.3587 38.6658 29.111 38.4094C28.8633 38.1529 28.7403 38.428 28.3977 38.4298C28.055 38.4317 28.0531 38.4038 27.7086 38.4038C27.364 38.4038 27.3677 38.4577 27.0251 38.4558C26.6824 38.454 26.6489 38.5785 26.3434 38.428C25.9076 38.2143 25.8704 38.1864 25.6674 37.746C25.4942 37.3725 25.6636 37.3465 25.6711 36.9358C25.6785 36.5252 25.524 36.501 25.6934 36.1257C25.8946 35.6853 25.9002 35.6202 26.3285 35.3935C26.6042 35.2467 26.6563 35.3991 26.9692 35.3991C27.2821 35.3991 27.2821 35.4381 27.595 35.44C27.9078 35.4419 27.9078 35.4493 28.2207 35.4511C28.5336 35.453 28.5336 35.4679 28.8465 35.4679C29.1594 35.4679 29.1594 35.3954 29.4723 35.3935C29.7851 35.3917 29.7851 35.4028 30.098 35.4028C30.4109 35.4028 30.4109 35.4158 30.7238 35.4158C31.0367 35.4158 31.0367 35.414 31.3496 35.4158C31.6624 35.4177 31.6624 35.4604 31.9753 35.4642C32.2882 35.4679 32.2882 35.4772 32.6011 35.4753C32.914 35.4734 32.914 35.4381 33.2269 35.4326C33.5398 35.427 33.5398 35.375 33.8526 35.375C34.1655 35.375 34.1655 35.4623 34.4784 35.466C34.7913 35.4697 34.823 35.3006 35.1004 35.4456C35.5344 35.6704 35.5865 35.6797 35.7933 36.1201C35.9683 36.4936 35.8361 36.5252 35.8361 36.9377C35.8361 37.3502 35.9441 37.3706 35.7709 37.7441C35.5642 38.1901 35.5586 38.257 35.1153 38.4744C34.8062 38.6249 34.7615 38.4038 34.4188 38.3982C34.0761 38.3927 34.0743 38.4651 33.7316 38.4633C33.3889 38.4614 33.3852 38.4149 33.0388 38.4168C32.6924 38.4187 32.5583 38.1604 32.318 38.4094C32.0778 38.6584 32.3553 38.7922 32.3553 39.1489C32.3553 39.5057 32.3348 39.5038 32.3329 39.8606C32.3311 40.2174 32.3068 40.2137 32.305 40.5667C32.3031 40.9198 32.3534 40.9198 32.3534 41.2728C32.3534 41.6259 32.3422 41.6259 32.346 41.9789C32.3497 42.332 32.3609 42.332 32.3609 42.6851C32.3609 43.0381 32.3124 43.0381 32.3106 43.3912C32.3087 43.7442 32.3199 43.7442 32.3199 44.0973C32.3199 44.4503 32.3497 44.4503 32.3515 44.8034C32.3534 45.1564 32.3571 45.1564 32.359 45.5095C32.3609 45.8626 32.3925 45.8626 32.3944 46.2156C32.3962 46.5687 32.5117 46.6021 32.3571 46.9199C32.1392 47.364 32.0852 47.3565 31.6475 47.5869C31.3663 47.7356 31.3496 47.6111 31.0311 47.6111C30.7126 47.6111 30.7145 47.626 30.3979 47.6631C30.0813 47.7003 30.0589 47.7375 29.7758 47.5907L29.7796 47.5851Z" fill="#292C2D"/>
<path d="M41.699 47.8136C41.347 47.7876 41.347 47.7616 40.9987 47.7114C40.6504 47.6613 40.6355 47.6966 40.3003 47.5869C39.9651 47.4773 39.9818 47.4346 39.6764 47.2692C39.371 47.1038 39.3467 47.1317 39.0916 46.8938C38.8364 46.656 38.9128 46.6002 38.7247 46.3066C38.5366 46.013 38.4565 46.0576 38.3336 45.7306C38.2107 45.4036 38.3168 45.3794 38.2666 45.0319C38.2163 44.6844 38.1697 44.6919 38.1455 44.3407C38.1213 43.9895 38.1678 43.9895 38.1697 43.6383C38.1716 43.2871 38.1064 43.2852 38.1064 42.934C38.1064 42.5828 38.1585 42.581 38.1529 42.2298C38.1474 41.8786 38.1027 41.8786 38.1008 41.5255C38.0989 41.1725 38.1194 41.1725 38.125 40.8213C38.1306 40.4701 38.1623 40.4682 38.1623 40.117C38.1623 39.7658 38.1455 39.764 38.138 39.4128C38.1306 39.0616 38.1045 39.0616 38.1269 38.7085C38.1492 38.3555 38.2051 38.3629 38.2554 38.0136C38.3057 37.6642 38.1697 37.6326 38.2926 37.3C38.4155 36.9674 38.518 37.0231 38.7079 36.7258C38.8979 36.4285 38.788 36.3375 39.045 36.0996C39.302 35.8618 39.3579 35.9268 39.6689 35.7633C39.98 35.5998 39.9669 35.5626 40.3022 35.4567C40.6374 35.3508 40.6616 35.4641 41.0099 35.4158C41.3581 35.3675 41.3544 35.3378 41.7064 35.3173C42.0584 35.2969 42.0659 35.3043 42.429 35.3099C42.7922 35.3155 42.7922 35.3415 43.1554 35.3396C43.5185 35.3378 43.5185 35.295 43.8817 35.2876C44.2449 35.2802 44.243 35.2802 44.6043 35.2988C44.9656 35.3173 44.9545 35.3173 45.3027 35.3601C45.651 35.4028 45.6715 35.3155 46.0067 35.4251C46.3419 35.5347 46.3252 35.5756 46.6306 35.7466C46.9361 35.9175 46.9398 35.9101 47.1949 36.1479C47.4501 36.3858 47.3849 36.4285 47.573 36.7203C47.7611 37.012 47.8822 36.9525 48.0013 37.2796C48.1205 37.6066 47.9827 37.6401 48.0274 37.9875C48.0721 38.335 48.1056 38.3313 48.1429 38.6788C48.1522 38.7624 48.2472 38.8014 48.1988 38.8702C47.9362 39.2437 47.9678 39.3236 47.5786 39.5596C47.3048 39.7249 47.2359 39.5243 46.9193 39.5596C46.6027 39.5949 46.6027 39.6153 46.2842 39.6506C45.9657 39.6859 45.9695 39.7194 45.6529 39.7621C45.61 39.7677 45.6026 39.7956 45.5616 39.7844C45.3269 39.7157 45.3027 39.7398 45.1295 39.567C44.9302 39.3663 45.0178 39.318 44.9135 39.0541C44.893 39.004 44.9284 38.978 44.893 38.9389C44.7179 38.7513 44.6732 38.794 44.474 38.6305C44.2747 38.467 44.3287 38.3555 44.0828 38.2756C43.7923 38.1808 43.7681 38.3295 43.4627 38.3295C43.1572 38.3295 43.1572 38.3053 42.8518 38.3034C42.5464 38.3016 42.5222 38.1808 42.2316 38.2774C41.9746 38.3629 42.0212 38.4632 41.8126 38.6361C41.604 38.8089 41.4811 38.7327 41.3768 38.9817C41.2539 39.2734 41.4401 39.3087 41.4438 39.6246C41.4475 39.9405 41.4401 39.9405 41.4438 40.2564C41.4475 40.5723 41.4066 40.5723 41.4084 40.8882C41.4103 41.2041 41.4047 41.2041 41.4047 41.52C41.4047 41.8358 41.3898 41.8358 41.3879 42.1517C41.3861 42.4676 41.4531 42.4676 41.4531 42.7854C41.4531 43.1031 41.4457 43.1013 41.4475 43.4172C41.4494 43.7331 41.3172 43.7535 41.4401 44.0434C41.5444 44.2887 41.6412 44.2087 41.8442 44.3797C42.0472 44.5507 41.9802 44.6733 42.2335 44.7588C42.5221 44.8573 42.5464 44.7681 42.8518 44.7718C43.1572 44.7755 43.1572 44.7439 43.4627 44.7476C43.7681 44.7513 43.7644 44.7383 44.0698 44.7086C44.4218 44.6733 44.5261 44.8758 44.7924 44.6454C45.0047 44.4615 44.8353 44.3444 44.8762 44.0657C44.8837 44.0136 44.8557 44.0118 44.8762 43.9635C44.9861 43.7033 44.9004 43.6327 45.1016 43.4339C45.2748 43.2611 45.3511 43.3726 45.5821 43.2927C45.6231 43.2797 45.6137 43.2425 45.6566 43.2481C45.9732 43.2908 45.9657 43.3558 46.2823 43.3949C46.599 43.4339 46.6101 43.3596 46.9286 43.3986C47.2471 43.4376 47.2787 43.3596 47.5525 43.5249C47.9399 43.7609 47.8673 43.8427 48.1373 44.2087C48.1876 44.2756 48.1969 44.2701 48.1876 44.3537C48.1485 44.7012 48.1112 44.6956 48.0572 45.0431C48.0032 45.3906 48.0516 45.3961 47.9287 45.7232C47.8058 46.0502 47.7909 46.0372 47.6047 46.3289C47.4184 46.6207 47.4724 46.669 47.221 46.9068C46.9696 47.1447 46.9212 47.0834 46.6176 47.2543C46.314 47.4253 46.3252 47.4438 45.9937 47.5516C45.6622 47.6594 45.6529 47.6111 45.3046 47.6575C44.9563 47.704 44.9619 47.7523 44.6099 47.7746C44.2579 47.7969 44.2467 47.7765 43.8836 47.7765C43.5204 47.7765 43.5204 47.8081 43.1572 47.8081C42.7941 47.8081 42.7941 47.7393 42.4309 47.7616C42.0677 47.7839 42.064 47.8359 41.7027 47.8099L41.699 47.8136Z" fill="#292C2D"/>
<path d="M58.7474 47.6204C58.3135 47.3993 58.3135 47.3342 58.0918 46.9013C57.9391 46.6058 58.103 46.5854 58.1086 46.2528C58.1142 45.9201 58.0844 45.9201 58.0844 45.5875C58.0844 45.2549 58.0714 45.2549 58.0658 44.9223C58.0602 44.5897 58.0863 44.5897 58.0863 44.2571C58.0863 43.9244 58.0304 43.9226 58.0341 43.5881C58.0378 43.2536 58.3135 43.1607 58.0956 42.9062C57.9075 42.6869 57.792 42.9619 57.5033 42.9656C57.2147 42.9693 57.2147 42.9805 56.926 42.9786C56.6373 42.9768 56.6392 42.9359 56.3505 42.9285C56.0618 42.921 56.0637 42.8857 55.7769 42.8839C55.4901 42.882 55.4882 42.9136 55.1995 42.9173C54.9109 42.921 54.7768 42.672 54.5905 42.8913C54.3745 43.1459 54.6594 43.2518 54.6613 43.5844C54.6632 43.917 54.6687 43.9189 54.6706 44.2515C54.6725 44.5841 54.624 44.5841 54.624 44.9167C54.624 45.2493 54.6632 45.2493 54.6632 45.5819C54.6632 45.9146 54.6129 45.9146 54.611 46.2472C54.6091 46.5798 54.7805 46.6132 54.6278 46.9087C54.4043 47.3454 54.3763 47.3825 53.9405 47.6092C53.6575 47.7542 53.6221 47.5665 53.3036 47.5628C52.9851 47.5591 52.9851 47.6129 52.6667 47.6111C52.3482 47.6092 52.3165 47.73 52.0334 47.5851C51.5995 47.3639 51.5399 47.3528 51.3164 46.9198C51.1618 46.6188 51.2997 46.5742 51.3015 46.236C51.3034 45.8978 51.3015 45.8978 51.3052 45.5615C51.309 45.2252 51.3183 45.2233 51.322 44.887C51.3257 44.5507 51.3909 44.5488 51.389 44.2125C51.3872 43.8761 51.3462 43.8743 51.3388 43.5379C51.3313 43.2016 51.3146 43.1998 51.3127 42.8634C51.3108 42.5271 51.3443 42.5252 51.3462 42.1889C51.3481 41.8526 51.3164 41.8507 51.3183 41.5144C51.3201 41.178 51.3015 41.1762 51.3015 40.8399C51.3015 40.5035 51.3462 40.5017 51.3481 40.1653C51.3499 39.829 51.2978 39.8271 51.3015 39.489C51.3052 39.1508 51.3108 39.1508 51.3127 38.8144C51.3146 38.4781 51.3052 38.4762 51.3071 38.1381C51.309 37.7999 51.3928 37.7999 51.3909 37.4617C51.389 37.1235 51.3127 37.1235 51.309 36.7872C51.3052 36.4508 51.1842 36.4099 51.335 36.1089C51.5529 35.6704 51.6051 35.6592 52.039 35.4307C52.3202 35.282 52.3463 35.414 52.6648 35.4158C52.9833 35.4177 52.9833 35.3917 53.3017 35.3935C53.6202 35.3954 53.6519 35.2802 53.9331 35.4288C54.3614 35.6555 54.3614 35.6983 54.5849 36.1275C54.7302 36.4099 54.6408 36.4285 54.6445 36.7444C54.6483 37.0603 54.6743 37.0622 54.6762 37.3781C54.6781 37.6939 54.6781 37.6958 54.6818 38.0136C54.6855 38.3313 54.665 38.3313 54.665 38.6491C54.665 38.9668 54.6781 38.9668 54.6743 39.2827C54.6706 39.5986 54.408 39.6896 54.6185 39.9275C54.8066 40.143 54.9164 39.9442 55.2033 39.9498C55.4901 39.9554 55.4901 39.9386 55.7769 39.9405C56.0637 39.9424 56.0637 39.9721 56.3524 39.9721C56.641 39.9721 56.6392 39.9498 56.926 39.9498C57.2128 39.9498 57.2165 39.9684 57.5052 39.9684C57.7939 39.9684 57.8702 40.1263 58.062 39.9089C58.2744 39.6692 58.1067 39.6097 58.0993 39.2901C58.0918 38.9705 58.0471 38.9705 58.0453 38.6509C58.0434 38.3313 58.062 38.3332 58.0676 38.0154C58.0732 37.6977 58.0974 37.6977 58.1012 37.3818C58.1049 37.0659 58.0918 37.064 58.0956 36.7463C58.0993 36.4285 57.9522 36.4007 58.0993 36.1182C58.3209 35.6964 58.36 35.7001 58.7847 35.479C59.0659 35.3322 59.0808 35.414 59.3993 35.4084C59.7177 35.4028 59.7177 35.4455 60.0362 35.44C60.3547 35.4344 60.405 35.2319 60.6862 35.3787C61.122 35.6072 61.1704 35.6537 61.3883 36.0941C61.5373 36.3969 61.3641 36.4471 61.3622 36.7834C61.3604 37.1198 61.3045 37.1216 61.3026 37.458C61.3008 37.7943 61.3082 37.7962 61.3082 38.1325C61.3082 38.4688 61.3268 38.4707 61.3268 38.807C61.3268 39.1433 61.3045 39.1452 61.3045 39.4815C61.3045 39.8179 61.3399 39.8197 61.3399 40.156C61.3399 40.4924 61.3157 40.4942 61.3175 40.8306C61.3194 41.1669 61.3455 41.1688 61.3455 41.5051C61.3455 41.8414 61.3697 41.8433 61.3697 42.1796C61.3697 42.5159 61.3939 42.5178 61.392 42.856C61.3902 43.1942 61.3101 43.1923 61.3082 43.5305C61.3064 43.8687 61.3138 43.8687 61.3119 44.205C61.3101 44.5414 61.3715 44.5432 61.3715 44.8814C61.3715 45.2196 61.3064 45.2196 61.3064 45.5578C61.3064 45.896 61.3324 45.896 61.3324 46.2342C61.3324 46.5724 61.5336 46.6262 61.3846 46.9291C61.1704 47.3658 61.1164 47.416 60.6862 47.6427C60.405 47.7913 60.3509 47.5665 60.0325 47.5628C59.714 47.5591 59.7066 47.5256 59.3918 47.5758C59.0603 47.6278 59.0268 47.7579 58.7437 47.6129L58.7474 47.6204Z" fill="#292C2D"/>
<path d="M65.5694 47.5702C65.1467 47.3491 65.0759 47.3546 64.8617 46.9291C64.7109 46.6281 64.8971 46.5798 64.8934 46.2416C64.8897 45.9034 64.8431 45.9053 64.8394 45.5671C64.8356 45.2289 64.8878 45.2289 64.8859 44.8926C64.8841 44.5562 64.8394 44.5544 64.8394 44.218C64.8394 43.8817 64.9008 43.8817 64.9027 43.5435C64.9045 43.2053 64.8897 43.2053 64.8915 42.869C64.8934 42.5327 64.8617 42.5308 64.8636 42.1945C64.8654 41.8581 64.8561 41.8563 64.8543 41.5199C64.8524 41.1836 64.8487 41.1818 64.8431 40.8454C64.8375 40.5091 64.8338 40.5072 64.8338 40.169C64.8338 39.8309 64.8785 39.8327 64.8841 39.4945C64.8896 39.1563 64.8431 39.1563 64.8468 38.8181C64.8505 38.48 64.8654 38.48 64.8654 38.1436C64.8654 37.8073 64.9083 37.8054 64.9064 37.4672C64.9045 37.1291 64.8338 37.1309 64.8301 36.7927C64.8263 36.4545 64.6904 36.4118 64.8431 36.1108C65.0647 35.6741 65.1131 35.6444 65.5508 35.4195C65.832 35.2746 65.8749 35.4567 66.1915 35.4548C66.5081 35.453 66.5081 35.4678 66.8247 35.4641C67.1413 35.4604 67.1413 35.427 67.4579 35.4232C67.7745 35.4195 67.7745 35.3842 68.0911 35.3842C68.4077 35.3842 68.4077 35.4102 68.7243 35.4177C69.041 35.4251 69.041 35.4641 69.3576 35.4641C69.6742 35.4641 69.6742 35.4232 69.9908 35.4195C70.3074 35.4158 70.3074 35.3786 70.624 35.3768C70.9406 35.3749 70.9406 35.4102 71.2591 35.4084C71.5776 35.4065 71.5757 35.4567 71.8942 35.4567C72.2126 35.4567 72.2108 35.4418 72.5292 35.4437C72.8477 35.4455 72.8663 35.3118 73.1457 35.4585C73.5722 35.6834 73.6821 35.6555 73.8776 36.094C74.0452 36.4694 73.8366 36.5233 73.8366 36.9358C73.8366 37.3483 73.9763 37.3725 73.8106 37.7478C73.615 38.1919 73.5722 38.1938 73.1438 38.4224C72.8682 38.5691 72.8496 38.4967 72.5367 38.493C72.2238 38.4892 72.2257 38.4316 71.9128 38.4298C71.5999 38.4279 71.5999 38.4093 71.287 38.4112C70.9741 38.4131 70.9741 38.4186 70.6612 38.4205C70.3484 38.4223 70.3484 38.4205 70.0355 38.4205C69.7226 38.4205 69.7226 38.4372 69.4097 38.4391C69.0968 38.4409 69.0987 38.4428 68.7877 38.4428C68.4766 38.4428 68.3463 38.1957 68.1377 38.4261C67.903 38.6881 68.134 38.8014 68.1302 39.1545C68.1265 39.5075 67.877 39.6376 68.1302 39.8829C68.3835 40.1282 68.5195 39.8271 68.8826 39.8253C69.2458 39.8234 69.2477 39.8253 69.6108 39.8253C69.974 39.8253 69.974 39.8922 70.3391 39.8978C70.7041 39.9033 70.7022 39.907 71.0673 39.9089C71.4323 39.9108 71.4304 39.8755 71.7955 39.8755C72.1605 39.8755 72.1959 39.7119 72.5255 39.8662C72.9669 40.0724 72.9986 40.1133 73.2072 40.5518C73.3804 40.9198 73.2649 40.9495 73.263 41.3564C73.2612 41.7634 73.3766 41.7931 73.2034 42.1629C72.9967 42.607 72.9837 42.685 72.5404 42.8969C72.2126 43.0529 72.1586 42.9024 71.7955 42.8969C71.4323 42.8913 71.4323 42.8523 71.0691 42.8504C70.7059 42.8485 70.7059 42.8188 70.3409 42.8207C69.9759 42.8225 69.9777 42.8504 69.6127 42.8504C69.2477 42.8504 69.2477 42.8077 68.8826 42.8095C68.5176 42.8114 68.4599 42.6534 68.1731 42.8801C67.9477 43.0604 68.1898 43.1421 68.1917 43.432C68.1936 43.7219 68.1451 43.7219 68.1451 44.0118C68.1451 44.3016 67.9645 44.3723 68.1768 44.5711C68.404 44.7848 68.4711 44.6194 68.7821 44.6231C69.0931 44.6268 69.095 44.6157 69.406 44.6157C69.717 44.6157 69.7189 44.5971 70.0318 44.5915C70.3446 44.586 70.3446 44.6213 70.6575 44.6194C70.9704 44.6175 70.9704 44.5674 71.2833 44.5692C71.5962 44.5711 71.5962 44.5952 71.9091 44.5952C72.2219 44.5952 72.2219 44.5711 72.5348 44.5692C72.8477 44.5674 72.8999 44.4094 73.1774 44.5544C73.6169 44.7829 73.6932 44.8145 73.9 45.2642C74.0713 45.634 73.8888 45.686 73.8832 46.0948C73.8776 46.5036 73.9875 46.5259 73.8162 46.8957C73.6132 47.3305 73.5908 47.3658 73.1625 47.5869C72.8812 47.7319 72.8459 47.6036 72.5292 47.6074C72.2126 47.6111 72.2126 47.5832 71.896 47.5869C71.5794 47.5906 71.5794 47.6204 71.2628 47.6204C70.9462 47.6204 70.9462 47.6389 70.6296 47.6389C70.313 47.6389 70.313 47.5906 69.9964 47.5906C69.6798 47.5906 69.6798 47.6408 69.3632 47.6408C69.0465 47.6408 69.0465 47.6389 68.7299 47.6408C68.4133 47.6427 68.4133 47.652 68.0967 47.652C67.7801 47.652 67.7801 47.5683 67.4635 47.5665C67.1469 47.5646 67.1469 47.6408 66.8284 47.6389C66.5099 47.6371 66.5099 47.5665 66.1952 47.6036C65.8805 47.6408 65.8544 47.7133 65.5732 47.5665L65.5694 47.5702Z" fill="#292C2D"/>
<path d="M84.5138 47.5963C84.2196 47.5238 84.2326 47.4959 83.9998 47.3008C83.767 47.1057 83.7819 47.0908 83.5919 46.8474C83.402 46.604 83.3908 46.6133 83.199 46.3699C83.0072 46.1264 83.0276 46.1116 82.8358 45.87C82.644 45.6284 82.6477 45.6247 82.454 45.3832C82.2603 45.1416 82.2119 45.1806 82.0201 44.9391C81.8282 44.6975 81.8618 44.6696 81.6737 44.4243C81.4856 44.1791 81.4912 44.1716 81.3068 43.9226C81.1224 43.6736 81.2081 43.5714 80.9194 43.4544C80.5339 43.3001 80.4352 43.1998 80.0981 43.4395C79.8615 43.6067 80.0925 43.7331 80.0869 44.023C80.0813 44.3129 80.1167 44.311 80.1167 44.6009C80.1167 44.8907 80.059 44.8907 80.0627 45.1806C80.0664 45.4705 80.1055 45.4705 80.1074 45.7585C80.1093 46.0465 80.1111 46.0484 80.1111 46.3383C80.1111 46.6281 80.2284 46.6597 80.0906 46.9162C79.8597 47.3473 79.8262 47.3566 79.3904 47.5851C79.1091 47.7319 79.0905 47.5684 78.7739 47.5647C78.4573 47.561 78.4536 47.639 78.137 47.6334C77.8204 47.6279 77.7887 47.7263 77.5056 47.5795C77.081 47.3603 77.0344 47.3454 76.8165 46.9199C76.6619 46.6189 76.7849 46.5798 76.7793 46.2435C76.7737 45.9072 76.7718 45.9053 76.7718 45.569C76.7718 45.2327 76.8072 45.2308 76.8128 44.8945C76.8184 44.5581 76.8147 44.5563 76.8184 44.2199C76.8221 43.8836 76.8575 43.8818 76.8594 43.5454C76.8612 43.2091 76.8649 43.2072 76.8594 42.8709C76.8538 42.5346 76.7737 42.5346 76.7662 42.1964C76.7588 41.8582 76.7718 41.8582 76.7681 41.52C76.7644 41.1818 76.7867 41.1818 76.7867 40.8436C76.7867 40.5054 76.8277 40.5054 76.8296 40.1691C76.8314 39.8328 76.8258 39.8309 76.8314 39.4946C76.837 39.1582 76.8333 39.1564 76.8333 38.8182C76.8333 38.48 76.8053 38.48 76.7998 38.1418C76.7942 37.8036 76.8351 37.8036 76.8333 37.4654C76.8314 37.1272 76.77 37.1272 76.7718 36.7891C76.7737 36.4509 76.6433 36.4118 76.796 36.1108C77.0177 35.6704 77.0475 35.6203 77.4888 35.3954C77.7924 35.2393 77.8371 35.3657 78.1779 35.3675C78.5188 35.3694 78.5188 35.4214 78.8596 35.4233C79.2004 35.4252 79.2004 35.4456 79.5412 35.4493C79.882 35.453 79.882 35.4121 80.2229 35.4159C80.5637 35.4196 80.5637 35.4121 80.9045 35.4159C81.2453 35.4196 81.2453 35.44 81.5861 35.44C81.927 35.44 81.927 35.4252 82.2678 35.4214C82.6086 35.4177 82.6086 35.4084 82.9494 35.427C83.2902 35.4456 83.2958 35.4995 83.646 35.5404C83.9961 35.5812 84.0222 35.4623 84.3574 35.5701C84.6926 35.6779 84.6461 35.7801 84.9515 35.951C85.2569 36.122 85.337 36.0161 85.5903 36.2576C85.8436 36.4992 85.7337 36.5865 85.9162 36.882C86.0987 37.1774 86.1993 37.1291 86.3185 37.4561C86.4377 37.7832 86.3148 37.8166 86.3688 38.1641C86.4228 38.5116 86.4619 38.5042 86.4917 38.8554C86.5159 39.1471 86.5215 39.1471 86.5234 39.4407C86.5252 39.7343 86.5569 39.7361 86.5364 40.0279C86.5141 40.3438 86.4899 40.3419 86.4452 40.6559C86.4005 40.97 86.4452 40.983 86.352 41.284C86.2589 41.585 86.1751 41.5497 86.0336 41.8322C85.892 42.1146 85.9982 42.1834 85.7914 42.4212C85.5847 42.6591 85.5177 42.5922 85.2569 42.7743C84.9962 42.9564 84.7317 42.8152 84.6982 43.131C84.6628 43.4822 84.972 43.3968 85.1843 43.6774C85.3966 43.9579 85.3799 43.9709 85.594 44.2515C85.8082 44.5321 85.8082 44.5321 86.0224 44.8108C86.2366 45.0896 86.2068 45.1137 86.4191 45.3943C86.6314 45.6749 86.6239 45.6823 86.8363 45.9629C87.0486 46.2435 87.1603 46.1766 87.2888 46.5037C87.4173 46.8307 87.5403 46.905 87.3819 47.2228C87.2236 47.5405 87.0951 47.4903 86.7543 47.6018C86.488 47.6892 86.4712 47.5665 86.19 47.5665C85.9088 47.5665 85.9088 47.6 85.6294 47.6018C85.3501 47.6037 85.3519 47.6241 85.0726 47.6464C84.7932 47.6687 84.7858 47.6594 84.512 47.5925L84.5138 47.5963ZM82.4075 40.4311C82.6589 40.3419 82.6365 40.2787 82.8433 40.1115C83.05 39.9443 83.1226 39.9851 83.2306 39.7417C83.3517 39.4704 83.3368 39.424 83.2157 39.1527C83.1077 38.9055 83.0295 38.9631 82.8228 38.7903C82.616 38.6175 82.6607 38.5246 82.4056 38.4373C82.1337 38.3444 82.1113 38.5023 81.8227 38.5042C81.534 38.506 81.534 38.4633 81.2472 38.4614C80.9604 38.4596 80.9548 38.4521 80.6624 38.4447C80.37 38.4373 80.2955 38.2422 80.0999 38.4596C79.8802 38.7067 80.0739 38.7699 80.0776 39.1006C80.0813 39.4314 80.0832 39.4314 80.0869 39.7622C80.0906 40.0929 79.9081 40.1505 80.1241 40.4014C80.3123 40.6188 80.3849 40.4553 80.6717 40.459C80.9585 40.4627 80.9585 40.4311 81.2472 40.4292C81.5359 40.4274 81.5377 40.3828 81.8245 40.4107C82.1113 40.4385 82.1337 40.5277 82.4056 40.4311H82.4075Z" fill="#292C2D"/>
<path d="M93.012 47.7727C92.6618 47.7522 92.6656 47.6854 92.3173 47.6463C91.969 47.6073 91.956 47.6761 91.6207 47.5701C91.2855 47.4642 91.3004 47.4326 90.9931 47.2673C90.6858 47.1019 90.6132 47.1892 90.3562 46.9514C90.0992 46.7135 90.237 46.6002 90.0489 46.3066C89.8608 46.013 89.7472 46.0743 89.6242 45.7473C89.5013 45.4202 89.6242 45.3905 89.574 45.043C89.5237 44.6955 89.4548 44.7048 89.4399 44.3536C89.4324 44.1585 89.3803 44.1325 89.4957 43.9746C89.7155 43.6754 89.708 43.6196 90.0451 43.4636C90.3338 43.3316 90.3785 43.4896 90.6933 43.4524C91.008 43.4152 91.008 43.406 91.3246 43.3669C91.6412 43.3279 91.6338 43.2647 91.9504 43.2313C91.9914 43.2276 91.9932 43.2647 92.0323 43.2777C92.2707 43.3502 92.3136 43.2722 92.4905 43.4468C92.6972 43.6494 92.6935 43.6698 92.7866 43.9448C92.8034 43.9969 92.7531 44.0061 92.7587 44.0619C92.7922 44.3518 92.5799 44.4744 92.8052 44.6602C93.0883 44.8944 93.1852 44.6955 93.5521 44.7253C93.8612 44.7494 93.8593 44.7364 94.1704 44.7327C94.4814 44.729 94.4814 44.6974 94.7906 44.6937C95.0997 44.69 95.1053 44.794 95.3996 44.6937C95.6491 44.6101 95.6119 44.558 95.813 44.3889C96.0142 44.2198 96.1017 44.2904 96.2507 44.073C96.3233 43.9653 96.3103 43.8891 96.2283 43.7869C96.0626 43.5806 95.9937 43.6605 95.7702 43.5174C95.5467 43.3744 95.5895 43.2852 95.34 43.1997C95.0252 43.0901 95.0066 43.1421 94.6769 43.0938C94.3473 43.0455 94.3417 43.0808 94.0102 43.0343C93.6787 42.9879 93.6787 42.9971 93.3472 42.9526C93.0157 42.908 93.0231 42.8652 92.6953 42.8039C92.3676 42.7426 92.375 42.7909 92.0659 42.7184C91.7567 42.646 91.753 42.6571 91.4587 42.5419C91.1644 42.4267 91.1943 42.3765 90.9205 42.2223C90.6467 42.0681 90.6057 42.135 90.3767 41.9194C90.1476 41.7039 90.2183 41.6593 90.0526 41.3973C89.8868 41.1352 89.831 41.1706 89.7248 40.8788C89.6187 40.5871 89.6578 40.5797 89.6149 40.2675C89.5721 39.9553 89.5497 39.959 89.533 39.6468C89.5069 39.1749 89.5106 39.1767 89.5367 38.7047C89.5553 38.3535 89.6038 38.3591 89.6466 38.0098C89.6894 37.6604 89.5721 37.6381 89.6894 37.3055C89.8068 36.9729 89.8608 36.9989 90.0451 36.6998C90.2295 36.4006 90.1792 36.3597 90.4344 36.1181C90.6895 35.8766 90.7435 35.9583 91.0527 35.7911C91.3619 35.6239 91.3134 35.5031 91.6487 35.3972C91.9839 35.2913 92.0118 35.4046 92.3638 35.3637C92.7158 35.3228 92.7121 35.3061 93.0641 35.2875C93.4161 35.269 93.4161 35.2504 93.77 35.2522C94.1238 35.2541 94.1238 35.295 94.4758 35.2931C94.8278 35.2913 94.8297 35.2838 95.1817 35.2783C95.5337 35.2727 95.5374 35.2058 95.8894 35.2262C96.2414 35.2467 96.2321 35.334 96.5803 35.3804C96.9286 35.4269 96.9491 35.3284 97.2843 35.4362C97.6195 35.544 97.5972 35.5979 97.9064 35.7595C98.2155 35.9212 98.2584 35.8654 98.5135 36.1033C98.7687 36.3411 98.6662 36.4173 98.8469 36.7128C99.0275 37.0082 99.0815 36.9748 99.2007 37.3018C99.3199 37.6289 99.3274 37.627 99.3777 37.9726C99.4279 38.3182 99.3963 38.3238 99.4335 38.6713C99.4428 38.7549 99.4913 38.7735 99.441 38.8404C99.1784 39.2065 99.2417 39.3049 98.8562 39.5409C98.5824 39.7082 98.5247 39.5781 98.2081 39.6171C97.8915 39.6561 97.8859 39.6227 97.5674 39.6617C97.2489 39.7007 97.2489 39.6952 96.9305 39.7398C96.8876 39.7453 96.9007 39.7398 96.8597 39.7286C96.6194 39.6636 96.5822 39.7453 96.4108 39.5651C96.2153 39.3607 96.2358 39.3458 96.1389 39.0801C96.1203 39.0281 96.1706 39.0151 96.1315 38.976C95.9508 38.7921 95.9452 38.7995 95.7478 38.6341C95.5504 38.4688 95.61 38.348 95.366 38.2662C95.0941 38.1733 95.0662 38.2736 94.7794 38.2736C94.4926 38.2736 94.4907 38.2829 94.2039 38.2829C93.9171 38.2829 93.9022 38.2105 93.6303 38.3034C93.3733 38.3926 93.3938 38.4409 93.1852 38.6137C92.9766 38.7865 92.9766 38.7902 92.8108 39.0039C92.7549 39.0764 92.7419 39.1005 92.8071 39.1656C92.9933 39.3533 93.0343 39.2975 93.2597 39.4387C93.485 39.5799 93.4627 39.6078 93.7141 39.6914C94.0307 39.7974 94.0288 39.7899 94.3585 39.8345C94.6881 39.8791 94.6863 39.894 95.0159 39.9423C95.3456 39.9906 95.3511 39.9572 95.6808 40.011C96.0104 40.0649 96.0123 40.0501 96.3401 40.1114C96.6679 40.1727 96.6474 40.1931 96.9584 40.2582C97.2694 40.3232 97.2862 40.2656 97.5842 40.379C97.8821 40.4923 97.8542 40.5462 98.1298 40.7023C98.4055 40.8584 98.4316 40.8175 98.6588 41.0368C98.886 41.256 98.8674 41.2672 99.0313 41.5329C99.1951 41.7986 99.2194 41.7893 99.3237 42.0848C99.4279 42.3802 99.4056 42.3877 99.4447 42.7017C99.4838 43.0157 99.4503 43.0176 99.4726 43.3316C99.4894 43.5825 99.5155 43.5806 99.5173 43.8333C99.5192 44.086 99.4782 44.0823 99.4615 44.3332C99.4373 44.6844 99.4373 44.6825 99.3963 45.0319C99.3553 45.3812 99.4596 45.4035 99.3423 45.7361C99.2249 46.0687 99.1653 46.0409 98.981 46.34C98.7966 46.6392 98.8636 46.7005 98.6066 46.9384C98.3496 47.1762 98.29 47.1019 97.9809 47.2635C97.6717 47.4252 97.6791 47.4456 97.3458 47.5516C97.0124 47.6575 97.0068 47.6445 96.6567 47.6909C96.3066 47.7374 96.3066 47.7467 95.9546 47.7671C95.6026 47.7876 95.5877 47.7225 95.2208 47.7169C94.8539 47.7114 94.8539 47.7801 94.487 47.7764C94.1201 47.7727 94.122 47.7374 93.7551 47.7522C93.3882 47.7671 93.3863 47.7876 93.0194 47.7653L93.012 47.7727Z" fill="#292C2D"/>
<path d="M110.198 47.5591C109.766 47.338 109.705 47.3491 109.485 46.918C109.334 46.6226 109.502 46.5835 109.504 46.2509C109.505 45.9183 109.479 45.9183 109.479 45.5857C109.479 45.2531 109.461 45.2531 109.457 44.9205C109.453 44.5879 109.477 44.5879 109.477 44.2552C109.477 43.9226 109.455 43.9208 109.459 43.5863C109.463 43.2518 109.692 43.1942 109.474 42.9415C109.286 42.7222 109.211 42.9341 108.922 42.9359C108.634 42.9378 108.634 42.9694 108.343 42.9712C108.053 42.9731 108.056 42.9694 107.768 42.9712C107.479 42.9731 107.481 42.9136 107.192 42.9136C106.904 42.9136 106.904 42.8876 106.615 42.8839C106.326 42.8802 106.229 42.7055 106.038 42.9229C105.818 43.1738 106.08 43.2555 106.079 43.59C106.077 43.9245 106.034 43.9245 106.036 44.2571C106.038 44.5897 106.03 44.5897 106.036 44.9223C106.041 45.2549 106.043 45.2549 106.047 45.5876C106.051 45.9202 106.041 45.9202 106.041 46.2528C106.041 46.5854 106.222 46.63 106.069 46.9273C105.842 47.3677 105.788 47.3863 105.349 47.6148C105.067 47.7616 105.032 47.5851 104.715 47.5832C104.399 47.5814 104.397 47.5721 104.078 47.5702C103.76 47.5684 103.739 47.7226 103.456 47.5777C103.021 47.3528 102.993 47.3417 102.769 46.905C102.615 46.604 102.706 46.5817 102.708 46.2435C102.709 45.9053 102.704 45.9053 102.704 45.569C102.704 45.2326 102.721 45.2308 102.719 44.8945C102.717 44.5581 102.764 44.5563 102.762 44.2199C102.76 43.8836 102.78 43.8817 102.778 43.5454C102.777 43.2091 102.717 43.2072 102.719 42.8709C102.721 42.5346 102.749 42.5327 102.754 42.1964C102.76 41.86 102.737 41.8582 102.737 41.5218C102.737 41.1855 102.775 41.1837 102.773 40.8473C102.771 40.511 102.76 40.5091 102.758 40.1728C102.756 39.8365 102.78 39.8346 102.778 39.4983C102.777 39.162 102.76 39.1601 102.758 38.8238C102.756 38.4874 102.762 38.4856 102.758 38.1474C102.754 37.8092 102.7 37.8092 102.7 37.471C102.7 37.1328 102.698 37.1328 102.7 36.7946C102.702 36.4564 102.628 36.4379 102.782 36.1368C103.006 35.7002 102.993 35.6258 103.427 35.401C103.71 35.256 103.758 35.4047 104.077 35.4084C104.395 35.4121 104.395 35.4214 104.713 35.4251C105.032 35.4289 105.067 35.3062 105.349 35.4512C105.773 35.6704 105.836 35.6834 106.056 36.1052C106.202 36.3877 106.045 36.436 106.043 36.7537C106.041 37.0715 106.066 37.0715 106.066 37.3874C106.066 37.7033 106.004 37.7051 106.006 38.0229C106.008 38.3406 106.064 38.3406 106.067 38.6565C106.071 38.9724 106.049 38.9724 106.051 39.2902C106.053 39.6079 105.823 39.6934 106.036 39.9294C106.228 40.1412 106.328 39.9665 106.613 39.9703C106.898 39.974 106.9 39.9703 107.187 39.9703C107.474 39.9703 107.474 39.8959 107.76 39.8922C108.047 39.8885 108.047 39.9015 108.336 39.9015C108.625 39.9015 108.623 39.9312 108.908 39.9312C109.193 39.9312 109.265 40.1152 109.455 39.9034C109.667 39.6692 109.492 39.6098 109.491 39.292C109.489 38.9743 109.483 38.9761 109.483 38.6602C109.483 38.3444 109.453 38.3425 109.457 38.0247C109.461 37.707 109.437 37.707 109.437 37.3892C109.437 37.0715 109.528 37.0715 109.528 36.7556C109.528 36.4397 109.327 36.3988 109.474 36.1164C109.699 35.6909 109.762 35.7057 110.193 35.4883C110.476 35.3452 110.489 35.4623 110.807 35.4623C111.126 35.4623 111.126 35.4567 111.444 35.4567C111.763 35.4567 111.811 35.2746 112.094 35.4177C112.524 35.637 112.517 35.7076 112.735 36.135C112.888 36.436 112.739 36.4546 112.735 36.7928C112.731 37.131 112.791 37.131 112.791 37.4673C112.791 37.8036 112.75 37.8055 112.752 38.1418C112.753 38.4781 112.748 38.48 112.746 38.8163C112.744 39.1527 112.811 39.1545 112.807 39.4909C112.804 39.8272 112.794 39.8272 112.796 40.1654C112.798 40.5036 112.737 40.5036 112.744 40.8417C112.752 41.1799 112.811 41.1781 112.811 41.5163C112.811 41.8545 112.791 41.8545 112.783 42.1927C112.776 42.5308 112.806 42.5308 112.802 42.869C112.798 43.2072 112.798 43.2054 112.798 43.5436C112.798 43.8817 112.757 43.8817 112.761 44.2181C112.765 44.5544 112.726 44.5563 112.733 44.8945C112.74 45.2326 112.778 45.2308 112.78 45.569C112.781 45.9072 112.794 45.9072 112.789 46.2454C112.783 46.5835 112.897 46.6096 112.742 46.9106C112.523 47.3398 112.496 47.3528 112.066 47.574C111.783 47.7208 111.763 47.6074 111.446 47.6074C111.129 47.6074 111.128 47.5795 110.811 47.6148C110.494 47.6501 110.474 47.7096 110.191 47.5647L110.198 47.5591Z" fill="#292C2D"/>
<path d="M119.711 47.7189C119.359 47.6966 119.359 47.7077 119.009 47.6668C118.659 47.6259 118.654 47.6594 118.318 47.5572C117.983 47.455 117.991 47.4346 117.68 47.2729C117.368 47.1112 117.344 47.1465 117.087 46.9068C116.83 46.6671 116.884 46.63 116.702 46.3308C116.519 46.0316 116.439 46.0669 116.324 45.738C116.208 45.4091 116.314 45.3813 116.268 45.0338C116.221 44.6863 116.21 44.6882 116.182 44.3388C116.154 43.9895 116.111 43.9895 116.104 43.6364C116.096 43.2834 116.089 43.2834 116.085 42.9322C116.082 42.581 116.089 42.5791 116.091 42.2279C116.093 41.8767 116.124 41.8767 116.128 41.5237C116.132 41.1706 116.104 41.1706 116.111 40.8176C116.119 40.4645 116.137 40.4664 116.137 40.1133C116.137 39.7602 116.121 39.7621 116.113 39.4091C116.106 39.056 116.07 39.0541 116.093 38.7011C116.115 38.348 116.193 38.3573 116.247 38.008C116.301 37.6586 116.208 37.6363 116.333 37.3056C116.458 36.9748 116.508 37.0027 116.694 36.7072C116.881 36.4118 116.8 36.3338 117.056 36.0959C117.311 35.8581 117.389 35.9565 117.696 35.7893C118.004 35.6221 117.977 35.5589 118.309 35.4493C118.641 35.3396 118.668 35.4586 119.019 35.4102C119.369 35.3619 119.361 35.3173 119.713 35.2932C120.065 35.269 120.075 35.3118 120.438 35.3118C120.801 35.3118 120.801 35.2876 121.164 35.2857C121.527 35.2839 121.527 35.256 121.889 35.2523C122.25 35.2486 122.252 35.2523 122.613 35.2746C122.974 35.2969 122.967 35.2857 123.319 35.3322C123.671 35.3786 123.688 35.3192 124.023 35.4288C124.358 35.5385 124.339 35.5849 124.649 35.754C124.958 35.9231 124.997 35.8729 125.252 36.1145C125.507 36.3561 125.436 36.4118 125.621 36.7091C125.805 37.0064 125.833 36.9878 125.952 37.3167C126.072 37.6456 126.003 37.6586 126.053 38.008C126.103 38.3573 126.159 38.3499 126.185 38.7029C126.211 39.056 126.166 39.0541 126.166 39.4072C126.166 39.7603 126.189 39.7602 126.189 40.1114C126.189 40.4626 126.153 40.4645 126.153 40.8157C126.153 41.1669 126.228 41.1688 126.226 41.52C126.224 41.8711 126.153 41.873 126.152 42.2242C126.15 42.5754 126.146 42.5773 126.146 42.9285C126.146 43.2797 126.222 43.2815 126.224 43.6327C126.226 43.9839 126.191 43.9839 126.168 44.337C126.146 44.69 126.126 44.6863 126.079 45.0356C126.032 45.385 126.079 45.3924 125.96 45.725C125.841 46.0576 125.814 46.0391 125.63 46.3364C125.446 46.6337 125.507 46.6838 125.25 46.9236C124.993 47.1633 124.956 47.1112 124.645 47.2748C124.334 47.4383 124.358 47.5107 124.025 47.6148C123.691 47.7189 123.665 47.6315 123.315 47.6743C122.965 47.717 122.969 47.7672 122.617 47.7876C122.265 47.808 122.252 47.7895 121.889 47.7876C121.525 47.7858 121.525 47.7672 121.164 47.7635C120.803 47.7597 120.801 47.7932 120.438 47.7876C120.075 47.782 120.076 47.7356 119.715 47.7133L119.711 47.7189ZM120.237 38.257C119.978 38.3462 120.043 38.4632 119.836 38.6416C119.629 38.82 119.501 38.7327 119.399 38.9854C119.279 39.2771 119.445 39.3087 119.449 39.6246C119.453 39.9405 119.406 39.9405 119.406 40.2564C119.406 40.5723 119.432 40.5723 119.426 40.8882C119.421 41.2041 119.436 41.2041 119.432 41.52C119.428 41.8358 119.389 41.8358 119.387 42.1517C119.385 42.4676 119.371 42.4695 119.372 42.7854C119.374 43.1013 119.443 43.1013 119.451 43.4172C119.458 43.733 119.343 43.7461 119.467 44.0378C119.572 44.2812 119.659 44.1995 119.86 44.3704C120.062 44.5414 119.991 44.6547 120.242 44.742C120.531 44.8424 120.549 44.716 120.853 44.7197C121.157 44.7235 121.158 44.7383 121.464 44.742C121.769 44.7458 121.779 44.8405 122.067 44.742C122.321 44.6547 122.254 44.5637 122.453 44.3853C122.652 44.2069 122.786 44.3054 122.887 44.0582C123.006 43.7665 122.87 43.7368 122.874 43.4209C122.877 43.105 122.861 43.105 122.864 42.7891C122.868 42.4732 122.842 42.4732 122.846 42.1573C122.85 41.8414 122.889 41.8414 122.891 41.5255C122.892 41.2096 122.885 41.2096 122.885 40.8937C122.885 40.5779 122.945 40.5779 122.943 40.2601C122.941 39.9424 122.917 39.9442 122.913 39.6265C122.909 39.3087 123.041 39.2697 122.918 38.978C122.816 38.7327 122.689 38.8089 122.486 38.6342C122.283 38.4595 122.322 38.3945 122.071 38.3053C121.782 38.2049 121.771 38.2737 121.466 38.27C121.16 38.2663 121.155 38.3425 120.851 38.3016C120.548 38.2607 120.523 38.1585 120.235 38.257H120.237Z" fill="#292C2D"/>
<path d="M130.249 47.5721C129.822 47.3472 129.78 47.3435 129.564 46.9143C129.411 46.6133 129.511 46.5798 129.502 46.2416C129.493 45.9034 129.536 45.9034 129.536 45.5652C129.536 45.2271 129.578 45.2289 129.586 44.8907C129.593 44.5525 129.513 44.5525 129.515 44.2143C129.517 43.8762 129.521 43.878 129.515 43.5398C129.51 43.2016 129.571 43.2016 129.567 42.8634C129.564 42.5253 129.498 42.5271 129.496 42.1889C129.495 41.8507 129.524 41.8507 129.524 41.5144C129.524 41.1781 129.564 41.1762 129.565 40.8399C129.567 40.5035 129.565 40.5017 129.569 40.1654C129.573 39.829 129.53 39.8272 129.536 39.489C129.541 39.1508 129.549 39.1508 129.55 38.8145C129.552 38.4781 129.513 38.4763 129.515 38.1381C129.517 37.7999 129.558 37.7999 129.558 37.4636C129.558 37.1272 129.575 37.1254 129.575 36.7872C129.575 36.449 129.402 36.4118 129.55 36.1089C129.763 35.676 129.783 35.6091 130.214 35.3898C130.515 35.2356 130.567 35.3898 130.906 35.3935C131.245 35.3973 131.245 35.3991 131.584 35.3973C131.923 35.3954 131.923 35.3991 132.262 35.3935C132.601 35.388 132.601 35.3675 132.94 35.3675C133.279 35.3675 133.279 35.3657 133.618 35.3712C133.957 35.3768 133.957 35.3973 134.296 35.3991C134.635 35.401 134.635 35.4307 134.974 35.4307C135.313 35.4307 135.313 35.3973 135.652 35.4177C135.991 35.4381 136.002 35.4697 136.354 35.5143C136.706 35.5589 136.713 35.5087 137.049 35.6184C137.384 35.728 137.365 35.7596 137.671 35.9287C137.976 36.0978 138.01 36.0513 138.263 36.291C138.516 36.5307 138.483 36.5586 138.671 36.8541C138.859 37.1495 138.881 37.1365 138.998 37.4654C139.116 37.7943 139.071 37.8055 139.112 38.1548C139.153 38.5041 139.187 38.5023 139.213 38.8535C139.235 39.1657 139.181 39.1675 139.187 39.4797C139.192 39.7919 139.211 39.79 139.19 40.1022C139.168 40.4552 139.203 40.4589 139.155 40.8083C139.107 41.1576 139.179 41.1836 139.06 41.5163C138.941 41.8489 138.87 41.8191 138.684 42.1164C138.497 42.4138 138.538 42.4509 138.283 42.6906C138.028 42.9303 137.991 42.8839 137.682 43.0511C137.373 43.2184 137.391 43.2685 137.056 43.3744C136.721 43.4804 136.704 43.4246 136.354 43.4636C136.004 43.5027 136.004 43.5268 135.652 43.5491C135.3 43.5714 135.296 43.5082 134.944 43.5138C134.592 43.5194 134.592 43.5473 134.238 43.5491C133.884 43.551 133.882 43.5603 133.529 43.5547C133.175 43.5491 133.126 43.3429 132.847 43.5603C132.623 43.7349 132.825 43.8093 132.823 44.0917C132.821 44.3741 132.823 44.376 132.823 44.6603C132.823 44.9446 132.767 44.9427 132.767 45.2233C132.767 45.5039 132.789 45.5058 132.791 45.7864C132.793 46.067 132.778 46.0688 132.782 46.3494C132.786 46.63 132.953 46.6579 132.817 46.9069C132.582 47.3361 132.575 47.39 132.141 47.6148C131.86 47.7616 131.817 47.5851 131.5 47.5851C131.184 47.5851 131.182 47.5851 130.865 47.6204C130.549 47.6557 130.526 47.717 130.245 47.5684L130.249 47.5721ZM135.132 40.5481C135.385 40.4552 135.328 40.34 135.534 40.1672C135.741 39.9944 135.812 40.0557 135.907 39.803C136.024 39.489 136.05 39.4518 135.92 39.1415C135.817 38.8962 135.743 38.9334 135.546 38.755C135.348 38.5766 135.356 38.5599 135.106 38.4707C134.836 38.3741 134.834 38.467 134.547 38.4707C134.261 38.4744 134.261 38.4149 133.974 38.4187C133.687 38.4224 133.691 38.4856 133.408 38.4874C133.124 38.4893 133.048 38.2682 132.84 38.4577C132.65 38.6286 132.8 38.7141 132.8 38.9705C132.8 39.227 132.802 39.2251 132.8 39.4815C132.799 39.738 132.84 39.7417 132.836 40.0018C132.832 40.262 132.631 40.3475 132.823 40.524C133.033 40.7191 133.113 40.4887 133.4 40.4905C133.687 40.4924 133.687 40.537 133.976 40.5351C134.264 40.5333 134.262 40.5054 134.545 40.5407C134.829 40.576 134.864 40.6466 135.134 40.5481H135.132Z" fill="#292C2D"/>
<path d="M14.0068 25.5117C13.5691 25.2998 13.5207 25.2627 13.2954 24.8334C13.1408 24.5398 13.3252 24.4915 13.3252 24.1608C13.3252 23.83 13.3624 23.83 13.3587 23.4993C13.355 23.1685 13.3028 23.1685 13.2954 22.8396C13.2879 22.5107 13.314 22.5089 13.3065 22.1781C13.2991 21.8473 13.2507 21.8492 13.2451 21.5184C13.2395 21.1877 13.2991 21.1877 13.2916 20.8569C13.2842 20.5262 13.2618 20.5262 13.2507 20.1973C13.2395 19.8684 13.2563 19.8665 13.2488 19.5358C13.2414 19.205 13.2004 19.2069 13.1948 18.8761C13.1892 18.5453 13.2078 18.5453 13.2023 18.2146C13.1967 17.8838 13.165 17.8838 13.1594 17.5549C13.1538 17.226 13.1762 17.2242 13.1687 16.8934C13.1613 16.5627 13.1911 16.5627 13.1818 16.2319C13.1725 15.9011 13.1315 15.903 13.1222 15.5722C13.1129 15.2415 13.1501 15.2415 13.1445 14.9107C13.1389 14.58 13.1296 14.58 13.124 14.2492C13.1184 13.9185 13.0737 13.9203 13.0663 13.5896C13.0588 13.2588 13.057 13.2588 13.0495 12.928C13.0421 12.5973 13.0533 12.5973 13.0477 12.2665C13.0421 11.9358 13.0588 11.9358 13.0533 11.605C13.0477 11.2743 13.0719 11.2743 13.0663 10.9435C13.0607 10.6128 12.9825 10.6109 13.0365 10.2839C13.0793 10.0237 13.0384 9.97911 13.2209 9.78772C13.4034 9.59632 13.4518 9.64464 13.7126 9.59075C14.0254 9.52571 14.0273 9.60561 14.3458 9.6019C14.6642 9.59818 14.6642 9.57217 14.9827 9.56473C15.3012 9.5573 15.3012 9.522 15.6197 9.51456C15.9381 9.50713 15.9456 9.44767 16.2566 9.522C16.5825 9.60004 16.6105 9.59261 16.8637 9.81373C17.0984 10.0181 16.9997 10.1036 17.1766 10.3619C17.3536 10.6202 17.3927 10.5923 17.5696 10.8487C17.7465 11.1052 17.7651 11.0922 17.9402 11.3505C18.1153 11.6087 18.119 11.6069 18.2903 11.867C18.4617 12.1272 18.4114 12.1606 18.5809 12.4226C18.7504 12.6846 18.7746 12.6679 18.9496 12.9262C19.1247 13.1845 19.1079 13.1956 19.2867 13.4502C19.4655 13.7048 19.4506 13.7159 19.6257 13.9742C19.8008 14.2325 19.8306 14.2121 20.0019 14.4741C20.1732 14.7361 20.1937 14.7212 20.3669 14.9813C20.5401 15.2415 20.542 15.2359 20.7189 15.4905C20.8958 15.7451 20.7282 16.0238 21.0374 16.0145C21.3466 16.0052 21.1789 15.7451 21.3391 15.4812C21.4993 15.2173 21.5477 15.2471 21.7097 14.9832C21.8717 14.7193 21.8569 14.7082 22.0226 14.4443C22.1884 14.1805 22.1846 14.1786 22.3504 13.9129C22.5161 13.6472 22.4845 13.6286 22.6502 13.3647C22.816 13.1009 22.87 13.1343 23.0358 12.8704C23.2015 12.6066 23.2071 12.6103 23.3728 12.3446C23.5386 12.0789 23.5181 12.0677 23.6839 11.8038C23.8496 11.54 23.844 11.5363 24.0098 11.2705C24.1755 11.0048 24.1271 10.977 24.2947 10.7112C24.4624 10.4455 24.5182 10.4827 24.6858 10.2188C24.8535 9.95495 24.7883 9.91036 25.0118 9.69295C25.2353 9.47554 25.239 9.42909 25.5519 9.33804C25.8647 9.24698 25.8685 9.32689 26.1832 9.32503C26.498 9.32317 26.498 9.28601 26.8146 9.28043C27.1312 9.27486 27.1312 9.27486 27.4459 9.26742C27.7607 9.25999 27.7663 9.25256 28.0773 9.30273C28.3343 9.34361 28.3939 9.28787 28.5839 9.46625C28.7738 9.64464 28.744 9.7041 28.7999 9.96053C28.8707 10.2839 28.8222 10.2931 28.8297 10.622C28.8371 10.9509 28.8427 10.9528 28.8465 11.2836C28.8502 11.6143 28.8632 11.6143 28.8651 11.9451C28.8669 12.2758 28.8539 12.2758 28.8576 12.6066C28.8614 12.9373 28.826 12.9373 28.8297 13.2681C28.8334 13.5989 28.8073 13.5989 28.8148 13.9296C28.8222 14.2604 28.8725 14.2585 28.88 14.5893C28.8874 14.92 28.8465 14.92 28.8558 15.2508C28.8651 15.5815 28.8595 15.5815 28.8707 15.9123C28.8818 16.2431 28.9601 16.2412 28.9675 16.5701C28.975 16.899 28.9452 16.9008 28.9508 17.2316C28.9563 17.5624 28.9433 17.5624 28.9508 17.8931C28.9582 18.2239 28.9638 18.2239 28.9731 18.5546C28.9824 18.8854 28.9973 18.8854 29.0029 19.2161C29.0085 19.5469 28.9992 19.5469 29.0029 19.8777C29.0066 20.2084 29.0029 20.2084 29.0066 20.5392C29.0104 20.8699 28.9563 20.8699 28.9619 21.2007C28.9675 21.5314 29.0532 21.5296 29.0606 21.8603C29.0681 22.1911 29.042 22.1911 29.0513 22.5219C29.0606 22.8526 29.0662 22.8526 29.0755 23.1834C29.0848 23.5141 29.0364 23.516 29.0457 23.8467C29.055 24.1775 29.1854 24.1868 29.1295 24.5138C29.0848 24.7758 29.0346 24.774 28.8465 24.9617C28.6584 25.1493 28.6602 25.1735 28.4051 25.2255C28.0903 25.2906 28.0791 25.2329 27.7588 25.246C27.4385 25.259 27.4366 25.259 27.1163 25.2664C26.796 25.2738 26.7941 25.233 26.4738 25.2348C26.1534 25.2367 26.1478 25.3091 25.8312 25.2534C25.5761 25.2088 25.5519 25.2237 25.3638 25.0434C25.1757 24.8632 25.2166 24.8334 25.1663 24.5789C25.1216 24.3608 25.0974 24.141 25.0937 23.9192C25.0863 23.5847 25.1496 23.5847 25.1421 23.2503C25.1347 22.9158 25.0788 22.9177 25.0695 22.585C25.0602 22.2524 25.0546 22.2506 25.0472 21.9179C25.0397 21.5853 25.0788 21.5835 25.0714 21.2509C25.0639 20.9182 25.0714 20.9164 25.0639 20.5838C25.0565 20.2512 25.0769 20.2493 25.0676 19.9148C25.0583 19.5804 24.9969 19.5822 24.9913 19.2496C24.9857 18.917 25.0229 18.9151 25.0229 18.5806C25.0229 18.2462 25.0006 18.2462 24.995 17.9117C24.9894 17.5772 25.0192 17.5791 25.008 17.2465C24.9969 16.9139 25.2669 16.7206 24.9503 16.6203C24.6337 16.5199 24.751 16.834 24.5778 17.1071C24.4046 17.3803 24.4251 17.3951 24.2538 17.6701C24.0824 17.9451 24.1141 17.9674 23.9427 18.2462C23.7714 18.5249 23.7789 18.5286 23.6075 18.8073C23.4362 19.0861 23.412 19.0712 23.2406 19.3499C23.0693 19.6287 23.0991 19.6472 22.9259 19.9241C22.7527 20.201 22.6856 20.1601 22.5106 20.4351C22.3355 20.7101 22.4137 20.764 22.1809 20.9944C21.9481 21.2248 21.9537 21.2657 21.6334 21.3401C21.1529 21.4515 21.1361 21.4553 20.65 21.3624C20.3278 21.301 20.3111 21.2824 20.0652 21.0632C19.8194 20.8439 19.8939 20.7789 19.7058 20.5094C19.5177 20.24 19.4879 20.2604 19.3035 19.9873C19.1191 19.7141 19.1433 19.6974 18.9627 19.4224C18.782 19.1474 18.8025 19.1344 18.62 18.8594C18.4375 18.5844 18.3946 18.6122 18.214 18.3372C18.0333 18.0622 18.0557 18.0455 17.8713 17.7742C17.6869 17.5029 17.6683 17.5103 17.4783 17.2353C17.2884 16.9603 17.4132 16.5459 17.0984 16.6593C16.7837 16.7726 17.0798 17.0216 17.0891 17.3598C17.0984 17.698 17.171 17.6962 17.1804 18.0343C17.1897 18.3725 17.1226 18.3707 17.1319 18.707C17.1412 19.0433 17.2083 19.0415 17.2139 19.376C17.2195 19.7104 17.1822 19.7123 17.1841 20.0468C17.1859 20.3812 17.2232 20.3812 17.2288 20.7157C17.2344 21.0502 17.1915 21.052 17.2008 21.3865C17.2101 21.721 17.2232 21.721 17.2325 22.0573C17.2418 22.3936 17.2157 22.3936 17.2232 22.73C17.2306 23.0663 17.2995 23.0644 17.3051 23.4008C17.3107 23.7371 17.2995 23.7371 17.3051 24.0716C17.3107 24.4061 17.3629 24.4172 17.3051 24.748C17.2604 25.0044 17.2902 25.0694 17.1059 25.2552C16.9215 25.4411 16.86 25.4058 16.6067 25.4559C16.2901 25.5191 16.2789 25.4596 15.9567 25.4652C15.6346 25.4708 15.6327 25.4374 15.3105 25.4448C14.9883 25.4522 14.9827 25.4225 14.6661 25.4838C14.3495 25.5451 14.3029 25.6548 14.0124 25.5135L14.0068 25.5117Z" fill="#292C2D"/>
<path d="M35.9702 23.4306C35.8044 23.4138 35.7634 23.4733 35.6293 23.3729C35.4226 23.2187 35.471 23.163 35.3556 22.9307C35.2084 22.6352 35.2513 22.6222 35.1526 22.3063C35.0539 21.9905 35.0632 21.9886 34.9682 21.6709C34.8732 21.3531 34.8378 21.3643 34.7466 21.0465C34.6553 20.7288 34.6683 20.725 34.5734 20.4073C34.4784 20.0895 34.4821 20.0895 34.3852 19.7736C34.2884 19.4578 34.2549 19.467 34.1599 19.1512C34.0649 18.8353 34.0705 18.8334 33.9792 18.5157C33.888 18.1979 33.8824 18.1998 33.7893 17.882C33.6962 17.5643 33.6962 17.5643 33.6012 17.2484C33.5062 16.9325 33.5118 16.9306 33.4187 16.6129C33.3255 16.2951 33.3404 16.2914 33.2455 15.9737C33.1505 15.6559 33.1132 15.6671 33.0201 15.3512C32.927 15.0353 32.9531 15.026 32.8599 14.7082C32.7668 14.3905 32.7463 14.3961 32.6551 14.0783C32.5638 13.7606 32.575 13.7568 32.4837 13.4391C32.3925 13.1213 32.3813 13.1251 32.2845 12.8092C32.1876 12.4933 32.1802 12.4951 32.0796 12.1811C31.979 11.8671 32.0274 11.8503 31.9343 11.5326C31.8412 11.2148 31.7984 11.226 31.7108 10.9082C31.6233 10.5905 31.6754 10.5738 31.5842 10.256C31.4929 9.93827 31.4371 9.95499 31.3421 9.63724C31.2471 9.3195 31.18 9.32693 31.1428 8.99803C31.113 8.73788 31.0907 8.68771 31.2173 8.45916C31.3439 8.2306 31.4147 8.26219 31.6475 8.14512C31.9343 8.00018 31.9585 8.05593 32.264 7.9593C32.5694 7.86268 32.5713 7.86825 32.8804 7.7772C33.1896 7.68615 33.1989 7.72331 33.5081 7.63784C33.8172 7.55236 33.8023 7.49847 34.1133 7.41486C34.2083 7.38884 34.2065 7.39256 34.3052 7.40371C34.4746 7.42415 34.4895 7.38884 34.6255 7.49104C34.836 7.64899 34.8266 7.66014 34.9477 7.89241C35.1004 8.186 35.0967 8.186 35.1898 8.50375C35.2829 8.8215 35.2922 8.81779 35.3835 9.13553C35.4748 9.45328 35.4301 9.46629 35.5213 9.78404C35.6126 10.1018 35.5902 10.1092 35.6833 10.4251C35.7765 10.741 35.7876 10.7391 35.8826 11.055C35.9776 11.3709 36.0204 11.3579 36.1173 11.6757C36.2141 11.9934 36.203 11.9953 36.2998 12.3112C36.3966 12.6271 36.4153 12.6215 36.5084 12.9392C36.6015 13.257 36.5643 13.2681 36.6518 13.5859C36.7393 13.9036 36.7319 13.9074 36.8231 14.2251C36.9144 14.5429 36.9479 14.5336 37.041 14.8495C37.1342 15.1653 37.1565 15.1598 37.2534 15.4757C37.3502 15.7916 37.2906 15.8101 37.3912 16.126C37.4917 16.4419 37.4973 16.4382 37.5923 16.756C37.6873 17.0737 37.7301 17.0607 37.8177 17.3803C37.9052 17.6999 37.8568 17.7129 37.948 18.0307C38.0393 18.3484 38.0244 18.354 38.1212 18.6699C38.2181 18.9858 38.2442 18.9783 38.3391 19.2942C38.4341 19.6101 38.4341 19.612 38.5272 19.9297C38.6204 20.2475 38.639 20.2419 38.7321 20.5597C38.8252 20.8774 38.8215 20.8774 38.9183 21.1952C39.0152 21.5129 39.1027 21.4962 39.1437 21.8251C39.1772 22.0908 39.1586 22.1131 39.0301 22.3472C38.9016 22.5814 38.8811 22.5851 38.6427 22.704C38.354 22.8452 38.3168 22.7505 38.0095 22.8434C37.7022 22.9363 37.7078 22.9567 37.4005 23.0459C37.0932 23.1351 37.095 23.1462 36.784 23.2299C36.473 23.3135 36.4637 23.28 36.1545 23.3692C36.0596 23.3971 36.0689 23.4361 35.972 23.4268L35.9702 23.4306Z" fill="#292C2D"/>
<path d="M43.5502 20.8384C43.187 20.6266 43.1386 20.673 42.8965 20.3293C42.7047 20.0598 42.8294 20.0134 42.7456 19.6938C42.6618 19.3742 42.6246 19.3835 42.5408 19.0638C42.457 18.7442 42.4775 18.7387 42.3936 18.4191C42.3098 18.0994 42.2763 18.1087 42.1906 17.7891C42.105 17.4695 42.1217 17.4658 42.0342 17.1462C41.9467 16.8266 41.9355 16.8303 41.8517 16.5107C41.7679 16.1911 41.766 16.1911 41.6859 15.8696C41.6058 15.5482 41.6282 15.5426 41.5425 15.223C41.4569 14.9034 41.4829 14.8959 41.3935 14.5782C41.3041 14.2604 41.2352 14.279 41.1496 13.9594C41.0639 13.6398 41.1216 13.6249 41.0378 13.3053C40.954 12.9857 40.9354 12.9894 40.8516 12.6698C40.7678 12.3502 40.7734 12.3484 40.6895 12.0288C40.6057 11.7091 40.6225 11.7054 40.5387 11.384C40.4549 11.0625 40.3897 11.0811 40.3078 10.7615C40.2258 10.4419 40.278 10.427 40.196 10.1074C40.1141 9.78779 40.0675 9.79894 39.9837 9.47933C39.8999 9.15972 39.9576 9.14485 39.8738 8.82339C39.79 8.50192 39.736 8.51679 39.654 8.19718C39.5721 7.87757 39.5628 7.87943 39.479 7.55796C39.3952 7.2365 39.4306 7.22907 39.3468 6.9076C39.2629 6.58613 39.1959 6.59728 39.1717 6.26838C39.1531 6.0101 39.1028 5.96364 39.235 5.7388C39.3672 5.51396 39.4455 5.56785 39.6801 5.46193C40.0135 5.30956 40.0321 5.36902 40.386 5.27054C40.7398 5.17205 40.7212 5.1033 41.0751 5.00853C41.4289 4.91377 41.4494 4.98438 41.8033 4.89147C42.1571 4.79856 42.1478 4.76139 42.5035 4.67034C42.8592 4.57929 42.863 4.59602 43.2187 4.50497C43.5744 4.41391 43.567 4.3879 43.9227 4.29499C44.2784 4.20208 44.271 4.17607 44.6248 4.07944C44.9787 3.98282 44.9898 4.01998 45.3456 3.92893C45.7013 3.83788 45.6957 3.81558 46.0514 3.72639C46.4071 3.63719 46.4164 3.67993 46.7778 3.60932C47.0608 3.55357 47.059 3.56101 47.3439 3.52199C47.6289 3.48296 47.6307 3.49225 47.9157 3.45323C48.2006 3.41421 48.1932 3.32688 48.4819 3.33431C48.8245 3.3436 48.8189 3.4012 49.156 3.45509C49.4931 3.50898 49.508 3.45137 49.8284 3.5703C50.1487 3.68922 50.1319 3.72081 50.4225 3.90105C50.713 4.0813 50.7503 4.03484 51.0017 4.2634C51.2531 4.49196 51.2159 4.5347 51.4226 4.80599C51.6293 5.07729 51.674 5.05313 51.8379 5.35416C52.0018 5.65518 51.9478 5.68305 52.0633 6.00638C52.1787 6.3297 52.175 6.33156 52.2774 6.6586C52.3799 6.98564 52.4078 6.99493 52.5028 7.34056C52.5978 7.68618 52.5736 7.69361 52.6667 8.04109C52.7598 8.38857 52.7784 8.383 52.8697 8.73048C52.9609 9.07796 52.9498 9.08168 53.041 9.4273C53.1323 9.77292 53.1509 9.7692 53.2422 10.1167C53.3334 10.4642 53.3371 10.4623 53.4303 10.8098C53.5234 11.1573 53.4694 11.1721 53.5625 11.5178C53.6556 11.8634 53.7096 11.8504 53.7972 12.1997C53.8847 12.549 53.8288 12.5621 53.9126 12.9114C53.9964 13.2607 54.0523 13.2477 54.1287 13.5989C54.192 13.8888 54.1939 13.8907 54.2534 14.1824C54.313 14.4741 54.3373 14.476 54.3577 14.7733C54.3782 15.0706 54.3186 15.0725 54.3 15.3679C54.2814 15.6634 54.3168 15.6708 54.2516 15.9607C54.1864 16.2506 54.1324 16.232 54.0244 16.507C53.9164 16.782 53.9368 16.7876 53.7823 17.0384C53.6277 17.2893 53.624 17.293 53.4228 17.5197C53.2217 17.7464 53.231 17.7538 52.9963 17.9452C52.7617 18.1366 52.7468 18.1125 52.4842 18.2667C52.2216 18.4209 52.2271 18.4265 51.9515 18.5528C51.6759 18.6792 51.6852 18.7052 51.3984 18.8056C51.1116 18.9059 51.1153 18.9245 50.8229 19.01C50.4709 19.1122 50.4541 19.0527 50.0984 19.14C49.7427 19.2274 49.7352 19.2014 49.3795 19.2943C49.0238 19.3872 49.0275 19.4039 48.6755 19.5042C48.3235 19.6046 48.3366 19.6566 47.9809 19.7495C47.6251 19.8424 47.6214 19.8276 47.2657 19.9149C46.91 20.0022 46.9137 20.0171 46.558 20.1063C46.2023 20.1955 46.1948 20.1658 45.8391 20.2568C45.4834 20.3479 45.4815 20.3423 45.1258 20.4352C44.7701 20.5281 44.7775 20.5578 44.4218 20.6489C44.0661 20.7399 44.0698 20.7492 43.7197 20.857C43.6415 20.8812 43.6303 20.8737 43.5539 20.8291L43.5502 20.8384ZM45.9434 16.5832C46.3289 16.7411 46.3662 16.4735 46.7703 16.3732C47.1744 16.2729 47.1782 16.2877 47.5823 16.1855C47.9865 16.0833 47.9771 16.0424 48.3813 15.9365C48.7854 15.8306 48.8022 15.8826 49.197 15.7451C49.4689 15.6504 49.441 15.5835 49.6999 15.4571C49.9587 15.3308 50.1226 15.485 50.2269 15.2174C50.4039 14.7603 50.2418 14.7231 50.1822 14.2363C50.145 13.9185 50.1003 13.9278 50.0221 13.6175C49.9438 13.3072 49.9662 13.3016 49.8842 12.9913C49.8023 12.681 49.8284 12.6754 49.7408 12.3669C49.6533 12.0585 49.5863 12.0771 49.5024 11.7686C49.4186 11.4602 49.4764 11.4434 49.3963 11.135C49.3162 10.8265 49.2976 10.8302 49.2156 10.5199C49.1337 10.2096 49.1393 10.2077 49.0592 9.89928C48.9791 9.59082 48.994 9.58524 48.9139 9.27493C48.8338 8.96461 48.7668 8.98133 48.6867 8.67102C48.6066 8.3607 48.7258 8.31796 48.5787 8.03366C48.4316 7.74936 48.3403 7.8274 48.1392 7.59513C47.938 7.36285 48.0628 7.16403 47.7667 7.08041C47.3793 6.97264 47.3625 7.18075 46.9714 7.26437C46.5803 7.34799 46.571 7.37772 46.165 7.48178C45.759 7.58584 45.7516 7.55239 45.3474 7.65645C45.0774 7.7252 45.0792 7.73449 44.8073 7.80324C44.5354 7.872 44.541 7.89615 44.271 7.96491C44.0009 8.03366 43.8277 7.81439 43.7011 8.06339C43.5577 8.34398 43.7737 8.38671 43.8538 8.69146C43.9339 8.9962 43.9953 8.98133 44.0791 9.28608C44.1629 9.59082 44.0959 9.60568 44.1797 9.90671C44.2635 10.2077 44.3045 10.1966 44.3864 10.4995C44.4684 10.8024 44.4479 10.8061 44.528 11.109C44.608 11.4118 44.636 11.4044 44.7142 11.7073C44.7924 12.0102 44.8148 12.0046 44.893 12.3075C44.9712 12.6104 44.9284 12.6215 45.0085 12.9244C45.0885 13.2273 45.1146 13.2199 45.1984 13.5209C45.2822 13.8219 45.2245 13.8368 45.3046 14.1415C45.3847 14.4463 45.3903 14.4425 45.4648 14.7473C45.5393 15.052 45.5281 15.0557 45.6063 15.3586C45.6845 15.6615 45.8018 15.6392 45.8074 15.9514C45.8149 16.3044 45.6622 16.4661 45.9508 16.585L45.9434 16.5832Z" fill="#292C2D"/>
<path d="M62.15 17.2614C61.7981 16.9585 61.7366 17.0049 61.5019 16.6036C61.3399 16.323 61.4777 16.2932 61.4535 15.9718C61.4293 15.6503 61.4256 15.6503 61.4051 15.327C61.3846 15.0037 61.3511 15.0055 61.3343 14.6841C61.3175 14.3626 61.3567 14.3589 61.3343 14.0355C61.312 13.7122 61.2468 13.7178 61.2226 13.3945C61.1984 13.0712 61.2002 13.0712 61.1797 12.7478C61.1592 12.4245 61.1611 12.4245 61.1443 12.1012C61.1276 11.7779 61.1537 11.7779 61.1332 11.4545C61.1127 11.1312 61.1034 11.1331 61.0792 10.8097C61.055 10.4864 61.0605 10.4864 61.0382 10.1631C61.0158 9.83977 61.0307 9.83977 61.014 9.51644C60.9972 9.19312 61.0345 9.19126 61.014 8.86794C60.9935 8.54461 60.986 8.54461 60.9656 8.22315C60.9451 7.90168 60.8873 7.90354 60.865 7.58207C60.8426 7.26061 60.8445 7.25875 60.824 6.93542C60.8035 6.6121 60.8203 6.6121 60.7979 6.28877C60.7756 5.96545 60.7439 5.96731 60.7197 5.64213C60.6955 5.31694 60.9581 5.20174 60.7123 4.98805C60.4664 4.77435 60.3808 4.98619 60.0548 5.00477C59.7289 5.02335 59.7271 5.01406 59.4011 5.03636C59.0752 5.05866 59.0733 5.04751 58.7493 5.07166C58.4252 5.09582 58.429 5.16829 58.103 5.19245C57.7771 5.2166 57.7734 5.16643 57.4475 5.18873C57.1215 5.21103 57.1234 5.24819 56.7975 5.26677C56.7751 5.26677 56.764 5.26677 56.7472 5.25377C56.4008 4.94531 56.304 5.01778 56.0656 4.62012C55.9222 4.38228 56.0116 4.33954 55.9911 4.06453C55.9706 3.78952 56.0563 3.78208 56.0376 3.50521C56.019 3.22834 55.9464 3.23392 55.9277 2.95705C55.9091 2.68018 55.8961 2.67832 55.9315 2.40331C55.965 2.14502 55.9203 2.106 56.0916 1.91089C56.263 1.71578 56.3021 1.73065 56.5554 1.66747C56.8738 1.58942 56.885 1.64331 57.2109 1.62101C57.5369 1.59872 57.5369 1.59128 57.8646 1.56713C58.1924 1.54297 58.1962 1.59872 58.5221 1.5727C58.848 1.54669 58.8424 1.46307 59.1702 1.44077C59.498 1.41847 59.5017 1.47608 59.8276 1.45935C60.1535 1.44263 60.1554 1.45006 60.4832 1.42962C60.811 1.40918 60.811 1.4259 61.1388 1.40361C61.4665 1.38131 61.4647 1.36644 61.7925 1.346C62.1202 1.32556 62.1202 1.34043 62.448 1.32185C62.7758 1.30326 62.774 1.2661 63.0999 1.24752C63.4258 1.22894 63.4277 1.24752 63.7554 1.22894C64.0832 1.21035 64.0814 1.17505 64.4073 1.15275C64.7332 1.13045 64.7351 1.14718 65.0629 1.12302C65.3906 1.09886 65.3888 1.09143 65.7166 1.06727C66.0443 1.04312 66.0443 1.03754 66.3703 1.01339C66.6962 0.989231 66.698 1.00595 67.0258 0.983656C67.3536 0.961358 67.3555 0.991089 67.6833 0.968791C68.011 0.946493 68.011 0.870307 68.3388 0.8573C68.3649 0.8573 68.35 0.905613 68.3686 0.924194C68.7206 1.23451 68.8268 1.1416 69.0707 1.54297C69.2142 1.77896 69.0801 1.81612 69.095 2.09113C69.1099 2.36615 69.095 2.368 69.1099 2.64487C69.1248 2.92174 69.1955 2.91803 69.2104 3.1949C69.2253 3.47177 69.2216 3.47362 69.1881 3.74864C69.1564 4.00692 69.2384 4.06824 69.0689 4.26521C68.8994 4.46218 68.823 4.38413 68.5698 4.44546C68.2513 4.52164 68.2513 4.52164 67.9235 4.54208C67.5957 4.56252 67.5976 4.5681 67.2698 4.59225C66.942 4.61641 66.9402 4.58482 66.6124 4.61269C66.2846 4.64056 66.2865 4.65543 65.9587 4.67773C65.6309 4.70003 65.629 4.71675 65.2994 4.73347C64.9697 4.7502 64.8394 4.47147 64.6196 4.71861C64.3998 4.96575 64.6364 5.06051 64.6624 5.3857C64.6885 5.71088 64.7593 5.7053 64.7835 6.03049C64.8077 6.35567 64.7332 6.35753 64.7555 6.68085C64.7779 7.00418 64.8133 7.00046 64.8356 7.32378C64.858 7.64711 64.8412 7.64711 64.8636 7.97043C64.8859 8.29376 64.9194 8.29004 64.9381 8.61336C64.9567 8.93669 64.979 8.93483 64.9958 9.25815C65.0126 9.58148 64.9697 9.58334 64.9884 9.90666C65.007 10.23 65.033 10.2281 65.0517 10.5515C65.0703 10.8748 65.0051 10.8785 65.0275 11.2018C65.0498 11.5251 65.0647 11.5233 65.0926 11.8466C65.1206 12.1699 65.115 12.1681 65.1373 12.4914C65.1597 12.8147 65.1951 12.811 65.2118 13.1343C65.2286 13.4577 65.2118 13.4577 65.2342 13.781C65.2565 14.1043 65.2547 14.1043 65.2807 14.4276C65.3068 14.7509 65.3441 14.7472 65.3646 15.0706C65.385 15.3939 65.3757 15.3939 65.3888 15.7191C65.4018 16.0442 65.5508 16.0796 65.4204 16.375C65.2286 16.8117 65.1895 16.8526 64.7816 17.0997C64.5079 17.2669 64.452 17.1239 64.1316 17.1499C63.8113 17.1759 63.8113 17.1666 63.4891 17.187C63.1669 17.2075 63.1706 17.2409 62.8484 17.2576C62.5263 17.2744 62.5262 17.2353 62.2059 17.2632C62.1724 17.2669 62.1612 17.2818 62.1445 17.2669L62.15 17.2614Z" fill="#292C2D"/>
<path d="M80.9864 17.5196C80.6586 17.5345 80.6604 17.5735 80.3308 17.5568C80.0011 17.5401 80.003 17.5605 79.679 17.5308C79.3549 17.501 79.3586 17.4583 79.0346 17.4304C78.7105 17.4026 78.7068 17.4416 78.3827 17.4156C78.0587 17.3895 78.0624 17.3394 77.7365 17.3152C77.4105 17.2911 77.4087 17.3282 77.0846 17.3059C76.7606 17.2836 76.7624 17.252 76.4384 17.2167C76.0771 17.1759 76.0808 17.1591 75.7232 17.1034C75.3656 17.0476 75.36 17.0941 75.0118 16.9919C74.6635 16.8897 74.6784 16.8618 74.3487 16.7113C74.0191 16.5608 73.9986 16.6072 73.7062 16.3936C73.4138 16.1799 73.4473 16.1539 73.2052 15.8863C72.9631 15.6187 72.8942 15.6707 72.7136 15.3604C72.5329 15.0501 72.6186 15.0129 72.5031 14.6729C72.3876 14.3328 72.3616 14.344 72.2964 13.9909C72.2312 13.6379 72.2535 13.636 72.2349 13.2755C72.2163 12.915 72.2051 12.915 72.2088 12.5545C72.2107 12.2387 72.2386 12.2405 72.2628 11.9265C72.2871 11.6124 72.2833 11.6106 72.3094 11.2966C72.3355 10.9825 72.3206 10.9807 72.3522 10.6648C72.3839 10.3489 72.3448 10.347 72.369 10.0311C72.3932 9.71524 72.4286 9.71896 72.4472 9.40307C72.4659 9.08718 72.4528 9.08718 72.4733 8.77128C72.4938 8.45539 72.5236 8.45725 72.5459 8.14136C72.5683 7.82547 72.5888 7.82733 72.613 7.51143C72.6372 7.19554 72.6148 7.19368 72.6428 6.87965C72.6707 6.56562 72.6484 6.5619 72.6744 6.24601C72.7005 5.93012 72.6819 5.92826 72.7061 5.61423C72.7303 5.30019 72.7657 5.30205 72.8048 4.98802C72.8421 4.69071 72.8253 4.68885 72.8737 4.39526C72.9221 4.10166 72.9128 4.09795 72.9929 3.80993C73.073 3.52191 73.1307 3.54607 73.2425 3.27106C73.3542 2.99604 73.2909 2.96817 73.4418 2.71174C73.5926 2.45531 73.6317 2.48504 73.8198 2.25277C74.0079 2.0205 73.9595 1.97776 74.196 1.79751C74.494 1.57082 74.5015 1.57825 74.8386 1.41287C75.1757 1.24749 75.1794 1.25864 75.5388 1.15087C75.8983 1.04309 75.8983 1.04123 76.2726 0.992921C76.647 0.944608 76.6451 0.913019 77.0213 0.896295C77.3509 0.88143 77.3547 0.892579 77.6843 0.914877C78.014 0.937175 78.0065 0.981772 78.3306 1.00779C78.6546 1.0338 78.6528 1.0561 78.9768 1.08397C79.3009 1.11184 79.3065 1.04867 79.6305 1.0784C79.9546 1.10813 79.9509 1.1583 80.2749 1.1806C80.599 1.2029 80.6027 1.15087 80.9286 1.16759C81.2545 1.18431 81.249 1.24192 81.573 1.27722C81.8766 1.31067 81.8729 1.32925 82.1727 1.38128C82.4726 1.43331 82.4912 1.35155 82.7873 1.42774C83.0834 1.50392 83.0592 1.57825 83.346 1.68045C83.6328 1.78265 83.6515 1.73062 83.9178 1.87927C84.1841 2.02793 84.1506 2.06695 84.389 2.25649C84.6274 2.44602 84.6851 2.38098 84.8881 2.60768C85.0911 2.83438 85.0129 2.88084 85.1693 3.13355C85.3258 3.38626 85.4189 3.33795 85.5344 3.6111C85.6498 3.88426 85.6014 3.90655 85.6759 4.19643C85.7504 4.48631 85.7895 4.48259 85.8249 4.77804C85.8603 5.0735 85.8025 5.08093 85.8007 5.3801C85.7988 5.67926 85.8137 5.67926 85.8007 5.97843C85.7876 6.29432 85.7672 6.29432 85.7429 6.60836C85.7187 6.92239 85.7113 6.92239 85.6871 7.23828C85.6629 7.55417 85.6256 7.55046 85.5995 7.86635C85.5735 8.18224 85.5772 8.18224 85.5548 8.49813C85.5325 8.81402 85.5921 8.81774 85.5716 9.13363C85.5511 9.44952 85.553 9.44952 85.5288 9.76541C85.5046 10.0813 85.4859 10.0794 85.458 10.3953C85.4301 10.7112 85.4599 10.7131 85.4338 11.029C85.4077 11.3449 85.3667 11.3412 85.3407 11.657C85.3146 11.9729 85.2922 11.9711 85.2699 12.287C85.2475 12.6029 85.242 12.6029 85.2196 12.9188C85.1973 13.2346 85.1973 13.2328 85.1637 13.5487C85.1321 13.8441 85.1917 13.8516 85.147 14.147C85.1023 14.4425 85.093 14.4387 85.011 14.7268C84.9291 15.0148 84.9254 15.0092 84.808 15.2824C84.6907 15.5555 84.7242 15.5722 84.5696 15.8268C84.4151 16.0814 84.3871 16.0609 84.199 16.2895C84.0109 16.5181 84.0742 16.5942 83.8377 16.7726C83.5397 16.9993 83.4559 16.8674 83.1225 17.0383C82.7892 17.2093 82.8432 17.3412 82.4837 17.4471C82.1243 17.5531 82.1019 17.4546 81.7276 17.4843C81.3533 17.514 81.3533 17.5066 80.9789 17.5252L80.9864 17.5196ZM77.6806 4.53091C77.3547 4.71115 77.4534 4.8468 77.202 5.12367C76.9505 5.40054 76.8853 5.35036 76.7308 5.69041C76.5892 6.00073 76.6619 6.01559 76.6321 6.35378C76.6023 6.69197 76.6358 6.69569 76.6078 7.03574C76.5799 7.37579 76.5315 7.37207 76.5054 7.71026C76.4793 8.04845 76.5147 8.05217 76.4886 8.39221C76.4626 8.73226 76.4197 8.72855 76.3955 9.06859C76.3713 9.40864 76.3657 9.40864 76.3452 9.74869C76.3248 10.0887 76.321 10.0887 76.3005 10.4288C76.2801 10.7688 76.3043 10.7707 76.2801 11.1107C76.2558 11.4508 76.2316 11.4489 76.2037 11.789C76.1758 12.129 76.1646 12.1309 76.1814 12.4709C76.2037 12.9596 76.0715 13.0191 76.3248 13.4372C76.4738 13.6825 76.5929 13.5338 76.8686 13.6156C77.1442 13.6973 77.1368 13.7512 77.4199 13.7977C77.7234 13.8478 77.7327 13.7902 78.0419 13.8051C78.3511 13.82 78.3492 13.8274 78.6584 13.846C78.9675 13.8646 78.9657 13.8739 79.2729 13.898C79.5802 13.9222 79.5802 13.9166 79.8875 13.9445C80.0756 13.9612 80.0794 13.9909 80.2675 13.9686C80.6437 13.924 80.72 14.0411 80.977 13.7624C81.3067 13.4056 81.1856 13.335 81.2862 12.8593C81.357 12.5267 81.303 12.5192 81.3328 12.1792C81.3626 11.8391 81.3905 11.8429 81.4203 11.5028C81.4501 11.1628 81.4706 11.1646 81.4985 10.8264C81.5265 10.4882 81.4985 10.4845 81.5283 10.1445C81.5581 9.80443 81.532 9.80258 81.5618 9.46439C81.5916 9.1262 81.5712 9.12434 81.5991 8.78429C81.627 8.44424 81.6736 8.44796 81.7015 8.10791C81.7295 7.76786 81.7015 7.76601 81.7257 7.42596C81.75 7.08591 81.7648 7.08777 81.7835 6.74586C81.8021 6.40396 81.8617 6.40396 81.8449 6.06205C81.8319 5.80376 81.7723 5.80748 81.7257 5.55477C81.6792 5.30205 81.8133 5.22401 81.6345 5.03819C81.4557 4.85237 81.3719 4.96758 81.113 4.90626C80.8541 4.84494 80.8485 4.88582 80.5859 4.84494C80.2805 4.79848 80.288 4.7446 79.9807 4.71858C79.6734 4.69257 79.6678 4.75575 79.3605 4.73159C79.0532 4.70743 79.0532 4.70743 78.7459 4.68328C78.4386 4.65912 78.42 4.72787 78.122 4.64983C77.891 4.58851 77.8724 4.4287 77.6862 4.53276L77.6806 4.53091Z" fill="#292C2D"/>
<path d="M102.752 23.412C102.639 23.4491 102.641 23.4491 102.527 23.4157C102.246 23.3302 102.263 23.2782 101.985 23.1815C101.708 23.0849 101.708 23.0812 101.43 22.9809C101.153 22.8805 101.147 22.8991 100.869 22.7988C100.592 22.6984 100.573 22.7504 100.296 22.6501C100.018 22.5498 100.022 22.5423 99.7445 22.4438C99.467 22.3454 99.4317 22.3992 99.2138 22.2004C98.8934 21.9087 98.8841 21.892 98.7724 21.4739C98.683 21.145 98.737 21.1394 98.7798 20.8012C98.8227 20.463 98.8208 20.463 98.8599 20.1248C98.899 19.7866 98.9661 19.7941 99.0014 19.454C99.0368 19.114 98.9903 19.1103 99.0238 18.7702C99.0573 18.4302 99.0331 18.4283 99.0648 18.0883C99.0964 17.7482 99.1244 17.7501 99.1597 17.4119C99.1951 17.0737 99.2156 17.0755 99.2585 16.7355C99.3013 16.3954 99.3292 16.3992 99.3646 16.061C99.4 15.7228 99.4037 15.7209 99.4317 15.3809C99.4596 15.0408 99.3702 15.0334 99.4037 14.6934C99.4372 14.3533 99.4726 14.357 99.5117 14.017C99.5509 13.6769 99.5211 13.6751 99.5583 13.335C99.5956 12.995 99.6142 12.995 99.6496 12.6512C99.6849 12.3074 100.069 12.1049 99.7445 11.986C99.4205 11.8671 99.5341 12.2387 99.3423 12.5249C99.1504 12.811 99.2082 12.85 99.0182 13.1381C98.8282 13.4261 98.778 13.3889 98.5936 13.6751C98.4092 13.9612 98.4502 13.9891 98.2602 14.2715C98.0702 14.554 98.0274 14.5261 97.8337 14.8067C97.64 15.0873 97.64 15.0873 97.4482 15.3697C97.2564 15.6522 97.3085 15.6875 97.1185 15.9699C96.9286 16.2524 96.8988 16.2338 96.7107 16.5181C96.5226 16.8024 96.5263 16.8061 96.3382 17.0904C96.1501 17.3747 96.1371 17.3654 95.9471 17.6497C95.7571 17.934 95.7851 17.9526 95.5951 18.2369C95.4051 18.5212 95.3809 18.5045 95.191 18.7888C95.001 19.0731 94.9898 19.0657 94.7999 19.3481C94.6099 19.6306 94.6956 19.7067 94.4404 19.9334C94.2002 20.1471 94.1536 20.0858 93.8724 20.2419C93.8556 20.2512 93.8724 20.2233 93.8519 20.2233C93.7308 20.2177 93.7197 20.2568 93.6042 20.2215C93.323 20.1341 93.3211 20.1341 93.0436 20.0338C92.7661 19.9334 92.7959 19.8535 92.5184 19.7532C92.2409 19.6528 92.226 19.6956 91.9485 19.5952C91.671 19.4949 91.658 19.5302 91.3823 19.4261C91.1067 19.3221 91.1216 19.2794 90.8478 19.1734C90.5741 19.0675 90.4958 19.1846 90.2761 18.9876C89.9613 18.707 89.9613 18.6662 89.8459 18.2629C89.7509 17.934 89.8459 17.9266 89.8831 17.5884C89.9204 17.2502 89.9669 17.2539 90.0004 16.9139C90.034 16.5738 90.034 16.5738 90.0656 16.2319C90.0973 15.89 90.0991 15.8919 90.1308 15.5518C90.1625 15.2118 90.142 15.2099 90.1736 14.8699C90.2053 14.5298 90.2295 14.5317 90.2593 14.1916C90.2891 13.8516 90.2556 13.8479 90.2835 13.5078C90.3115 13.1678 90.2984 13.1659 90.3264 12.8259C90.3543 12.4858 90.3748 12.4877 90.4027 12.1458C90.4307 11.8039 90.4493 11.8076 90.4791 11.4657C90.5089 11.1238 90.4884 11.1238 90.5219 10.7837C90.5554 10.4437 90.5666 10.4437 90.5983 10.1036C90.6299 9.76359 90.6337 9.76359 90.6635 9.42168C90.6933 9.07978 90.6914 9.08163 90.7212 8.73973C90.751 8.39782 90.7324 8.39782 90.764 8.05592C90.7957 7.71401 90.751 7.71029 90.7826 7.37025C90.8143 7.0302 90.8553 7.03391 90.8869 6.69387C90.9186 6.35382 90.9056 6.35196 90.9372 6.01191C90.9689 5.67187 90.9968 5.67372 91.0303 5.33368C91.0639 4.99363 91.0899 4.99549 91.1179 4.65358C91.1458 4.31167 91.1179 4.30982 91.1402 3.96791C91.1626 3.626 91.0639 3.60742 91.1644 3.28038C91.2557 2.98679 91.2501 2.94219 91.481 2.73965C91.6245 2.61329 91.6841 2.70249 91.8759 2.68576C91.9932 2.67647 91.9951 2.66718 92.1087 2.70063C92.4197 2.79354 92.4085 2.82513 92.7158 2.92918C93.0231 3.03324 93.0157 3.05554 93.3211 3.16146C93.6265 3.26737 93.634 3.24508 93.9394 3.35657C94.2449 3.46806 94.3026 3.36028 94.5428 3.57769C94.8613 3.86571 94.865 3.89172 94.9749 4.3061C95.0643 4.64243 95.0029 4.64986 94.9712 4.99734C94.9395 5.34482 94.8669 5.33739 94.8315 5.68301C94.7961 6.02864 94.8557 6.03607 94.8185 6.37983C94.7812 6.7236 94.7794 6.72546 94.7421 7.07108C94.7049 7.4167 94.7198 7.41856 94.6807 7.76418C94.6416 8.1098 94.5987 8.10423 94.5615 8.45171C94.5242 8.79919 94.5019 8.79547 94.4665 9.1411C94.4311 9.48672 94.4981 9.49415 94.4609 9.83977C94.4236 10.1854 94.379 10.1817 94.3417 10.5273C94.3045 10.8729 94.351 10.8785 94.3138 11.2241C94.2765 11.5697 94.2039 11.5623 94.1685 11.9079C94.1331 12.2536 94.135 12.2536 94.0977 12.601C94.0605 12.9485 94.1164 12.956 94.0791 13.3034C94.0419 13.6509 93.6396 13.9018 93.9692 14.0225C94.2989 14.1433 94.1946 13.7197 94.3901 13.4298C94.5857 13.1399 94.5838 13.1399 94.7794 12.8482C94.9749 12.5564 94.9451 12.5397 95.1388 12.2517C95.3325 11.9637 95.3642 11.9841 95.5597 11.6961C95.7553 11.4081 95.7013 11.3728 95.895 11.0829C96.0886 10.793 96.0961 10.7986 96.2879 10.5087C96.4797 10.2188 96.4742 10.2151 96.6641 9.92339C96.8541 9.63166 96.869 9.64095 97.0589 9.35107C97.2489 9.06119 97.2489 9.05934 97.4426 8.76946C97.6363 8.47958 97.6419 8.4833 97.8374 8.19714C98.033 7.91098 98.0442 7.91655 98.2434 7.63039C98.4427 7.34423 98.4744 7.36653 98.6718 7.07851C98.8692 6.79049 98.8618 6.78678 99.0573 6.49876C99.2529 6.21074 99.1486 6.1234 99.4037 5.88556C99.6384 5.66629 99.67 5.67558 99.9736 5.56595C100.087 5.52507 100.108 5.57338 100.225 5.60683C100.501 5.68673 100.506 5.67744 100.776 5.77778C101.046 5.87812 101.031 5.91715 101.302 6.01749C101.572 6.11783 101.564 6.13641 101.834 6.23861C102.104 6.34081 102.1 6.3501 102.371 6.44673C102.641 6.54335 102.639 6.55264 102.912 6.64555C103.186 6.73846 103.279 6.57308 103.492 6.76819C103.806 7.05993 103.788 7.11196 103.896 7.52633C103.983 7.86267 103.892 7.86824 103.859 8.21386C103.825 8.55948 103.819 8.55948 103.784 8.90511C103.749 9.25073 103.754 9.25073 103.717 9.59635C103.68 9.94197 103.708 9.94569 103.67 10.2913C103.633 10.6369 103.548 10.6276 103.512 10.9751C103.477 11.3226 103.553 11.3282 103.516 11.6757C103.479 12.0231 103.438 12.0176 103.397 12.3632C103.356 12.7088 103.363 12.7088 103.326 13.0563C103.289 13.4038 103.304 13.4038 103.268 13.7494C103.233 14.095 103.231 14.095 103.196 14.4406C103.16 14.7863 103.17 14.7881 103.134 15.1337C103.099 15.4794 103.043 15.4738 103.007 15.8213C102.972 16.1688 103.052 16.1725 103.017 16.5162C102.981 16.86 102.575 17.0886 102.899 17.2093C103.224 17.3301 103.112 16.925 103.307 16.6407C103.503 16.3564 103.525 16.3713 103.717 16.0833C103.909 15.7953 103.894 15.7822 104.08 15.4905C104.266 15.1988 104.274 15.2025 104.464 14.9108C104.654 14.619 104.628 14.6023 104.823 14.3143C105.019 14.0263 105.036 14.0374 105.231 13.7513C105.427 13.4651 105.397 13.4447 105.594 13.1566C105.792 12.8686 105.809 12.8816 106.004 12.5936C106.2 12.3056 106.192 12.3019 106.388 12.0139C106.583 11.7258 106.58 11.724 106.773 11.4341C106.967 11.1442 106.982 11.1554 107.176 10.8655C107.369 10.5756 107.395 10.5942 107.589 10.3043C107.783 10.0144 107.725 9.97728 107.919 9.6874C108.112 9.39753 108.09 9.37894 108.345 9.14295C108.58 8.92741 108.595 8.94227 108.896 8.83821C109.01 8.79919 109.014 8.82149 109.129 8.85494C109.442 8.94599 109.425 8.98872 109.731 9.10579C110.036 9.22286 110.059 9.16154 110.364 9.27489C110.669 9.38823 110.653 9.43469 110.96 9.54618C111.267 9.65767 111.319 9.55361 111.595 9.72642C111.85 9.88623 111.878 9.90295 111.971 10.1891C112.064 10.4753 112.046 10.505 111.932 10.7837C111.804 11.1015 111.746 11.0773 111.556 11.3598C111.366 11.6422 111.34 11.6273 111.144 11.9079C110.949 12.1885 110.953 12.1904 110.751 12.4672C110.55 12.7441 110.569 12.7553 110.371 13.0359C110.174 13.3164 110.135 13.2886 109.943 13.571C109.751 13.8535 109.746 13.8497 109.554 14.134C109.362 14.4183 109.418 14.4555 109.226 14.7379C109.034 15.0204 108.978 14.9832 108.783 15.2638C108.587 15.5444 108.615 15.5648 108.418 15.8436C108.22 16.1223 108.204 16.1111 108.006 16.3917C107.809 16.6723 107.835 16.689 107.639 16.9696C107.444 17.2502 107.464 17.2651 107.267 17.5438C107.069 17.8225 107.034 17.7984 106.837 18.0771C106.639 18.3558 106.656 18.3688 106.46 18.6494C106.265 18.93 106.218 18.8984 106.026 19.1827C105.835 19.467 105.848 19.4745 105.652 19.755C105.457 20.0356 105.445 20.0282 105.246 20.3069C105.047 20.5857 105.078 20.608 104.883 20.8885C104.687 21.1691 104.678 21.1636 104.483 21.4441C104.287 21.7247 104.28 21.721 104.086 22.0035C103.892 22.2859 103.918 22.3045 103.725 22.5869C103.531 22.8694 103.562 22.8972 103.333 23.1518C103.121 23.3878 103.052 23.3079 102.749 23.4045L102.752 23.412Z" fill="#292C2D"/>
<path d="M122.766 25.3631C122.44 25.2757 122.427 25.2627 122.185 25.0286C121.929 24.7833 121.974 24.7443 121.782 24.4451C121.591 24.146 121.594 24.1441 121.402 23.8468C121.211 23.5495 121.196 23.5588 121.004 23.2596C120.812 22.9604 120.801 22.9679 120.611 22.6687C120.421 22.3695 120.486 22.3287 120.3 22.0258C120.114 21.7229 120.116 21.7229 119.927 21.4219C119.739 21.1208 119.695 21.1487 119.507 20.8495C119.318 20.5504 119.376 20.5132 119.186 20.214C118.996 19.9149 118.931 19.9558 118.739 19.6584C118.547 19.3611 118.573 19.3425 118.382 19.0452C118.19 18.7479 118.22 18.7275 118.024 18.4302C117.828 18.1329 117.804 18.1496 117.612 17.8504C117.421 17.5513 117.38 17.581 117.193 17.2818C117.007 16.9827 117.205 16.6036 116.856 16.663C116.53 16.7207 116.856 16.9919 116.856 17.3227C116.856 17.6535 116.877 17.6535 116.875 17.9842C116.873 18.315 116.869 18.3187 116.864 18.6513C116.858 18.9839 116.856 18.9858 116.853 19.3184C116.849 19.651 116.791 19.6529 116.791 19.9855C116.791 20.3181 116.884 20.3181 116.886 20.6526C116.888 20.987 116.875 20.987 116.875 21.3215C116.875 21.656 116.873 21.656 116.875 21.9886C116.877 22.3212 116.888 22.3231 116.894 22.6576C116.899 22.992 116.832 22.992 116.836 23.3265C116.84 23.661 116.903 23.661 116.901 23.9954C116.899 24.3299 116.996 24.3559 116.841 24.6532C116.616 25.0918 116.588 25.1085 116.15 25.3352C115.865 25.4838 115.839 25.3203 115.519 25.3222C115.199 25.324 115.199 25.3556 114.877 25.3575C114.554 25.3594 114.554 25.3798 114.234 25.3779C113.914 25.3761 113.882 25.5006 113.597 25.3501C113.163 25.1215 113.124 25.1011 112.901 24.6644C112.75 24.3708 112.904 24.3336 112.901 24.0029C112.897 23.6721 112.906 23.6721 112.906 23.3414C112.906 23.0106 112.928 23.0106 112.934 22.6798C112.94 22.3491 112.878 22.3491 112.878 22.0183C112.878 21.6876 112.889 21.6876 112.886 21.3587C112.882 21.0298 112.915 21.0279 112.915 20.6972C112.915 20.3664 112.93 20.3664 112.936 20.0357C112.942 19.7049 112.874 19.7049 112.874 19.3741C112.874 19.0434 112.867 19.0434 112.863 18.7126C112.86 18.3819 112.902 18.3819 112.901 18.0511C112.899 17.7204 112.858 17.7204 112.858 17.3896C112.858 17.0588 112.878 17.0588 112.88 16.7281C112.882 16.3973 112.902 16.3973 112.904 16.0666C112.906 15.7358 112.893 15.7358 112.891 15.4051C112.889 15.0743 112.899 15.0743 112.895 14.7435C112.891 14.4128 112.878 14.4128 112.876 14.082C112.874 13.7513 112.912 13.7513 112.912 13.4205C112.912 13.0898 112.895 13.0898 112.895 12.759C112.895 12.4282 112.912 12.4282 112.908 12.0975C112.904 11.7667 112.895 11.7667 112.897 11.436C112.899 11.1052 112.845 11.1052 112.848 10.7726C112.852 10.44 112.705 10.3842 112.858 10.0906C113.081 9.65955 113.161 9.66326 113.595 9.44214C113.878 9.2972 113.906 9.4663 114.225 9.47001C114.543 9.47373 114.543 9.43657 114.864 9.43657C115.184 9.43657 115.182 9.39383 115.5 9.39011C115.819 9.38639 115.836 9.32879 116.143 9.40683C116.45 9.48488 116.471 9.5239 116.709 9.75246C116.964 9.99774 116.94 10.0219 117.126 10.3211C117.313 10.6202 117.27 10.6481 117.462 10.9436C117.653 11.239 117.672 11.2279 117.868 11.5233C118.063 11.8188 118.048 11.828 118.24 12.1235C118.432 12.419 118.443 12.4134 118.633 12.7107C118.823 13.008 118.797 13.0247 118.983 13.3239C119.169 13.6231 119.169 13.6231 119.354 13.9241C119.538 14.2251 119.549 14.2177 119.739 14.5168C119.929 14.816 119.961 14.7956 120.155 15.0892C120.348 15.3828 120.294 15.4199 120.488 15.7154C120.682 16.0108 120.749 15.9681 120.939 16.2654C121.129 16.5627 121.114 16.5739 121.302 16.873C121.49 17.1722 121.455 17.1982 121.641 17.5011C121.827 17.804 121.687 18.1942 122.039 18.1347C122.371 18.079 122.065 17.7612 122.065 17.4268C122.065 17.0923 122.045 17.0923 122.047 16.756C122.049 16.4196 122.073 16.4233 122.075 16.0926C122.077 15.7618 122.006 15.76 122.002 15.4274C121.998 15.0947 122.067 15.0947 122.06 14.7621C122.052 14.4295 122.043 14.4314 122.041 14.0988C122.039 13.7661 122.024 13.7661 122.026 13.4335C122.028 13.1009 122.036 13.1009 122.038 12.7683C122.039 12.4357 121.985 12.4357 121.983 12.1031C121.982 11.7704 122.038 11.7704 122.038 11.4378C122.038 11.1052 122.011 11.1052 122.017 10.7726C122.023 10.44 121.842 10.3842 121.993 10.0869C122.214 9.6484 122.278 9.62053 122.714 9.39197C122.999 9.24331 123.039 9.40498 123.362 9.41055C123.684 9.41613 123.682 9.45701 124.004 9.45886C124.326 9.46072 124.326 9.41241 124.647 9.41241C124.967 9.41241 124.991 9.30092 125.276 9.44957C125.703 9.6707 125.714 9.69671 125.932 10.1241C126.083 10.4195 125.954 10.44 125.962 10.7707C125.969 11.1015 126.027 11.0996 126.031 11.4304C126.034 11.7612 126.023 11.7612 126.025 12.0919C126.027 12.4227 125.975 12.4227 125.975 12.7534C125.975 13.0842 125.954 13.0842 125.95 13.4131C125.947 13.742 126.023 13.7438 126.023 14.0746C126.023 14.4054 126.031 14.4054 126.034 14.7343C126.038 15.0631 125.971 15.065 125.971 15.3958C125.971 15.7265 126.016 15.7265 126.012 16.0573C126.008 16.388 126.027 16.388 126.023 16.7188C126.019 17.0495 125.984 17.0495 125.98 17.3803C125.977 17.7111 125.958 17.7111 125.958 18.0418C125.958 18.3726 125.941 18.3726 125.947 18.7033C125.952 19.0341 125.947 19.0341 125.947 19.3648C125.947 19.6956 126.029 19.6956 126.025 20.0264C126.021 20.3571 125.99 20.3571 125.99 20.686C125.99 21.0149 126.021 21.0168 126.023 21.3475C126.025 21.6783 126.006 21.6783 126.008 22.009C126.01 22.3398 126.003 22.3398 126.006 22.6706C126.01 23.0013 125.965 23.0013 125.965 23.3321C125.965 23.6628 126.032 23.6647 126.029 23.9954C126.025 24.3262 126.107 24.3522 125.956 24.6477C125.736 25.0788 125.736 25.1438 125.306 25.3686C125.027 25.5154 124.978 25.324 124.662 25.3203C124.345 25.3166 124.345 25.3166 124.028 25.3185C123.712 25.3203 123.716 25.3575 123.401 25.3909C123.086 25.4244 123.071 25.4393 122.766 25.3575V25.3631Z" fill="#292C2D"/>
</svg>
